<?xml version="1.0" encoding="UTF-8"?>
<!DOCTYPE svg PUBLIC "-//W3C//DTD SVG 1.1//EN" "http://www.w3.org/Graphics/SVG/1.1/DTD/svg11.dtd">
<!-- Creator: CorelDRAW X6 -->
<?xml-stylesheet href="location.css" type="text/css"?>
<svg xmlns="http://www.w3.org/2000/svg" xml:space="preserve" width="210mm" height="297mm" version="1.1" style="shape-rendering:geometricPrecision; text-rendering:geometricPrecision; image-rendering:optimizeQuality; fill-rule:evenodd; clip-rule:evenodd"
viewBox="0 0 21000 29700"
 xmlns:xlink="http://www.w3.org/1999/xlink">
 <g id="Layer_x0020_1">
  <metadata id="CorelCorpID_0Corel-Layer"/>
  <g id="_407859432">
   <path class="fil0" d="M11184 8848c-792,0 -1424,777 -1424,1602 0,294 175,724 602,1608 166,321 592,959 704,1119 122,191 192,192 308,-79 86,-80 489,-607 683,-1040 324,-884 574,-1315 574,-1673 0,-760 -563,-1537 -1447,-1537zm0 2298l0 0c-381,0 -797,-300 -797,-713 0,-429 417,-713 797,-713 469,0 713,284 713,713 0,414 -244,713 -713,713z"/>
   <g>
    <path class="fil0" d="M11184 8848c-792,0 -1424,777 -1424,1602 0,294 175,724 602,1608 166,321 592,959 704,1119 122,191 192,192 308,-79 86,-80 489,-607 683,-1040 324,-884 574,-1315 574,-1673 0,-760 -563,-1537 -1447,-1537zm0 2298l0 0c-381,0 -797,-300 -797,-713 0,-429 417,-713 797,-713 469,0 713,284 713,713 0,414 -244,713 -713,713z"/>
   </g>
  </g>
 </g>
</svg>
