<?xml version="1.0" standalone="no"?>
<!DOCTYPE svg PUBLIC "-//W3C//DTD SVG 1.1//EN" "http://www.w3.org/Graphics/SVG/1.1/DTD/svg11.dtd" >
<svg xmlns="http://www.w3.org/2000/svg">
<metadata>
<json>
<![CDATA[
{
	"fontFamily": "icomoon",
	"description": "Font generated by IcoMoon.",
	"majorVersion": 0,
	"version": "Version 1.0",
	"fontId": "icomoon",
	"psName": "icomoon",
	"subFamily": "Regular",
	"fullName": "icomoon"
}
]]>
</json>
</metadata>
<defs>
<font id="icomoon" horiz-adv-x="1024">
<font-face units-per-em="1024" ascent="960" descent="-64" />
<missing-glyph horiz-adv-x="1024" />
<glyph unicode="&#x20;" horiz-adv-x="0" d="" />
<glyph unicode="&#xe191;" glyph-name="191" data-tags="seven" horiz-adv-x="976" d="M927.125 511.589c15.787-8.784 15.787-23.224 0.009-32.176l-202.571-113.646c1.217-3.367 2.057-6.926 2.057-10.546v-199.416c0 0.219-0.16 0.294-0.16 0.378 0-0.117 0.080-0.21 0.080-0.429 0-39.607-112.649-71.856-251.71-71.856-138.93 0-251.652 32.25-251.652 71.856 0 0.051 0.009 0.252 0.009 0.293v199.197c0 3.62 0.841 7.179 2.017 10.546l-169.296 95.081v-93.663c8.014-2.435 14.075-10.253 14.075-20.025 0-7.692-3.868-14.241-9.367-17.893l36.21-150.69c0.84-1.983 1.465-3.914 1.465-5.929v0-0.042c-0.080-13.895-21.167-25.165-47.13-25.165-26.034 0-47.13 11.293-47.13 25.165v0 0.042c0 2.015 0.553 3.988 1.394 5.919l36.282 150.69c-5.548 3.652-9.399 10.211-9.399 17.893 0 9.749 6.053 17.557 14.106 20.025v98.91l-23.729 13.318c-15.795 8.984-15.795 23.402 0 32.209l423.57 237.598c15.699 8.825 41.583 8.825 57.249 0zM474.805 101.842c153.165 0 235.65 38.338 235.655 53.846 0 16.214-80.129 54.089-235.655 54.089-155.389 0-235.615-37.876-235.615-54.089 0-15.542 82.603-53.846 235.615-53.846z" />
<glyph unicode="&#xe192;" glyph-name="192" data-tags=".notdef" horiz-adv-x="1040" d="M454.068 241.168c87.096-13.856 207.999-0.119 226.188 12.717 11.115 7.844 14.219 14.448 14.213 30.52 0.182 10.661-0.551 13.669-4.818 20.085-8.538 12.833-26.505 23.010-51.177 29.047-5.943 1.365-21.080 3.399-33.653 4.44l-23.074 1.911c-98.79 14.705-293.977 62.098-328.091 103.028-22.764 27.31-31.951 66.488-23.116 98.349 3.501 12.259 5.587 15.892 16.414 29.606 42.242 53.496 130.874 90.466 218.090 91.035 14.539 0.115 16.416 0.438 17.565 2.943 0.667 1.453-26.306-0.167-17.565-2.943l141.671-0.542-68.84 1.808-72.831-1.266 141.671-0.542c7.288 1.67-1.773 1.19 0 0 1.081-0.728 10.201-2.513 19.915-3.921 88.577-12.328 155.295-53.867 190.423-118.076 7.183-13.308 13.939-32.673 14.757-42.574l0.628-7.187-137.476 6.555-0.817 7.196c-0.982 10.176-9.147 23.245-18.66 29.928-15.466 10.869-54.354 21.365-77.599 23.557v0l-128.534 10.313c-21.579 1.704-50.524-2.049-67.215-8.681-20.577-8.203-29.042-18.604-30.352-37.315-0.718-10.231-0.304-12.413 4.17-18.567 14.253-20.129 50.452-36.713 83.919-38.443l65.936-12.366 70.935-10.907c4.094-0.63 18.897-2.252 32.005-3.688 66.097-7.337 123.987-29.412 161.736-61.602 15.843-13.586 21.269-19.652 30.065-34.118 17.786-28.94 18.635-62.612 2.484-93.853-15.455-29.382-47.986-57.409-89.723-76.758-16.768-7.712-58.493-21.368-79.367-25.932-17.249-3.77-46.757-7.495-63.004-7.802-7.176-0.062-15.32-0.482-18.16-0.619v0l-66.298 0.215-59.461 3.893-11.85 0.564c-41.185 1.962-85.772 14.623-124.322 35.37-57.151 30.758-88.313 67.286-98.346 115.306-1.739 7.511-2.846 15.938-2.657 18.632l0.34 4.846 44.758-2.135c24.825-1.184 54.003-2.17 64.948-2.151 18.676-0.079 20.171-0.287 21.129-2.763 8.563-22.13 57.308-58.459 113.045-67.113z" />
<glyph unicode="&#xe901;" glyph-name="12" data-tags="12" d="M529.575 822.68v0c-41.232 0-76.14-31.745-79.303-72.978l-20.555-296.776c-1.581-12.771 3.162-25.421 12.771-34.908 9.487-9.487 20.555-15.933 34.908-15.933h1.581l-7.906-233.286c0-9.487 3.162-19.096 11.068-27.002 6.325-8.028 15.933-11.19 27.002-11.19h27.002c20.677 0 36.489 17.515 36.489 36.489v612.77c-0.122 23.718-19.096 42.814-43.057 42.814v0zM336.063 560.811h7.906c23.839 0 44.516 19.096 44.516 42.814v195.216c0 8.028-6.325 14.352-14.352 14.352h-3.162c-7.906 0-12.649-6.325-12.649-14.352v-128.441c0-11.19-9.487-20.677-20.677-20.677h-3.162c-11.068 0-20.555 9.487-20.555 20.677v128.441c0 8.028-6.325 14.352-12.649 14.352h-3.162c-7.906 0-14.231-6.325-14.231-14.352v-128.441c0-11.19-9.487-20.677-20.555-20.677h-3.162c-11.19 0-20.555 9.487-20.555 20.677v128.441c0 8.028-6.325 14.352-12.771 14.352h-3.162c-8.028 0-12.771-6.325-12.771-14.352v-195.216c0-23.839 19.096-42.814 42.814-42.814h6.325l-12.771-392.012c0-9.487 3.162-19.096 9.487-27.002 6.325-6.325 15.933-11.19 25.421-11.19h28.461c9.487 0 19.096 4.865 25.421 11.19s11.068 17.393 9.487 27.002l-9.487 392.012h-0.005zM724.061 465.575c0 108.25-50.598 204.581-129.292 266.977v-105.453c34.3-44.76 54.855-100.831 54.855-161.403s-20.434-116.643-54.855-161.403v-105.696c78.694 62.396 129.292 158.727 129.292 266.977v0.001zM227.447 250.413c-66.531 48.409-109.832 126.738-109.832 215.163 0 69.572 26.88 132.941 70.667 180.377v98.398c-87.695-61.545-145.104-163.47-145.104-278.775 0-130.752 73.708-244.232 181.836-301.277-0.122 1.46-0.243 2.919-0.243 4.5l2.676 81.614zM448.57 169.529l1.338 38.435c-21.164-5.473-43.422-8.392-66.288-8.392-5.473 0-11.068 0.243-16.42 0.608l0.73-29.556c1.824-15.325-4.135-32.232-15.569-43.908 10.339-0.973 20.677-1.46 31.259-1.46 26.15 0 51.693 3.041 76.14 8.636-7.298 10.095-11.068 22.015-11.068 35.029z" />
<glyph unicode="&#xe902;" glyph-name="122" data-tags="122" d="M186.702 246.52v152.888h-54.977v35.273h149.969v-35.273h-54.733v-152.888h-40.259zM286.924 331.905c0 51.693 37.827 88.79 89.519 88.79 51.936 0 89.763-37.097 89.763-88.79s-37.827-88.79-89.763-88.79c-51.693 0-89.519 37.097-89.519 88.79zM428.745 331.905c0 32.11-20.555 56.315-52.179 56.315s-51.936-24.204-51.936-56.315c0-31.867 20.312-56.315 51.936-56.315s52.179 24.448 52.179 56.315zM489.803 246.52v188.161h87.938c40.868 0 63.126-27.61 63.126-60.572 0-32.718-22.623-60.572-63.126-60.572h-47.922v-66.775h-40.016zM600.121 373.988c0 15.812-11.798 25.421-27.61 25.421h-42.57v-50.72h42.57c15.69-0.122 27.61 9.852 27.61 25.299zM374.133 616.396l-74.559-83.803c-3.406-3.771-0.73-9.852 4.379-9.852h34.056c3.284 0 5.96-2.676 5.96-5.96v-60.936c0-3.284 2.676-5.96 5.96-5.96h57.409c3.284 0 5.96 2.676 5.96 5.96v60.936c0 3.284 2.676 5.96 5.96 5.96h34.056c5.108 0 7.784 5.96 4.379 9.852l-74.559 83.803c-2.554 2.676-6.69 2.676-9.001 0z" />
<glyph unicode="&#xe903;" glyph-name="13" data-tags="13" d="M514.129 534.418h44.516c18.609 0 33.813 15.204 33.813 33.813v113.602c0 18.609-15.204 33.813-33.813 33.813h-44.516c-18.609 0-33.813-15.204-33.813-33.813v-35.273h-53.639c-8.271 17.515-26.029 29.069-45.733 29.069s-37.584-11.676-45.733-29.069h-53.639v35.273c0 18.609-15.204 33.813-33.813 33.813h-44.516c-18.609 0-33.813-15.204-33.813-33.813v-113.602c0-18.609 15.204-33.813 33.813-33.813h44.516c18.609 0 33.813 15.204 33.813 33.813v35.273h53.639c4.987-10.582 13.623-19.217 24.326-24.326v-167.727c-17.636-10.095-29.069-32.353-29.069-57.896s11.433-47.8 29.069-57.896v-30.529c-10.582-4.987-19.217-13.623-24.326-24.326h-53.639v35.273c0 18.609-15.204 33.813-33.813 33.813h-44.516c-18.609 0-33.813-15.204-33.813-33.813v-113.602c0-18.609 15.204-33.813 33.813-33.813h44.516c18.609 0 33.813 15.204 33.813 33.813v35.273h53.639c8.271-17.515 26.029-29.069 45.733-29.069s37.584 11.676 45.733 29.069h53.639v-35.273c0-18.609 15.204-33.813 33.813-33.813h44.516c18.609 0 33.813 15.204 33.813 33.813v113.602c0 18.609-15.204 33.813-33.813 33.813h-44.516c-18.609 0-33.813-15.204-33.813-33.813v-35.273h-53.639c-4.987 10.582-13.623 19.217-24.326 24.326v30.529c17.636 10.095 29.069 32.353 29.069 57.896s-11.433 47.8-29.069 57.896v167.849c10.582 4.987 19.217 13.623 24.326 24.326h53.639v-35.273c0-18.731 15.204-33.935 33.813-33.935z" />
<glyph unicode="&#xe904;" glyph-name="14" data-tags="14" d="M465.842 327.769v14.96c0 18.244-14.717 32.84-32.962 32.84s-32.84-14.717-32.84-32.84v-14.96c0-18.123 14.717-32.84 32.84-32.84s32.962 14.717 32.962 32.84v0zM488.343 309.646c-7.298-23.839-29.313-41.354-55.463-41.354-26.272 0-48.165 17.515-55.463 41.354h-226.718c-14.231 0-27.732 3.284-39.895 9.122v-150.578c0-29.313 23.961-53.395 53.395-53.395h537.238c29.434 0 53.395 24.083 53.395 53.395v150.456c-12.163-5.717-25.664-9.122-39.895-9.122h-226.596zM712.75 579.907h-128.198c-7.663 48.409-49.747 85.627-100.223 85.627h-102.777c-50.598 0-92.56-37.219-100.344-85.627h-128.319c-30.529 0-55.585-24.083-55.585-53.517v-123.211c0-29.556 23.961-53.517 53.395-53.517h224.163c0.73 15.447 7.419 29.191 17.758 39.165 0.243 0.365 0.608 0.487 0.973 0.851 2.311 2.068 4.744 4.135 7.419 5.838 0.973 0.608 2.068 1.095 3.041 1.581 2.189 1.216 4.257 2.554 6.568 3.406 1.824 0.73 3.892 1.216 5.717 1.824 1.703 0.487 3.284 1.216 4.987 1.46 3.771 0.73 7.663 1.216 11.555 1.216 4.014 0 7.784-0.365 11.555-1.216 1.703-0.365 3.284-0.973 4.987-1.46 1.946-0.487 3.892-0.973 5.717-1.824 2.311-0.973 4.5-2.189 6.69-3.406 0.973-0.608 2.068-1.095 3.041-1.581 2.554-1.824 4.987-3.771 7.298-5.838 0.365-0.365 0.73-0.487 1.095-0.851 10.46-9.974 17.028-23.839 17.758-39.165h224.163c29.434 0 53.395 23.961 53.395 53.395v123.332c-0.122 29.434-25.177 53.517-55.828 53.517zM332.657 579.907c6.811 20.555 26.029 35.516 48.895 35.516h102.777c22.866 0 41.962-14.96 48.895-35.516h-200.567z" />
<glyph unicode="&#xe905;" glyph-name="15" data-tags="15" d="M147.902 141.311c-7.419 0-13.501 6.081-13.501 13.501v609.608c0 16.42-13.258 29.678-29.678 29.678v0c-16.42 0-29.678-13.258-29.678-29.678v-628.704c0-29.799 24.083-53.882 53.882-53.882h628.704c16.42 0 29.678 13.258 29.678 29.678v0c0 16.42-13.258 29.678-29.678 29.678h-609.729zM201.905 501.943v-288.141c0-7.419 6.081-13.501 13.501-13.501h91.952c7.419 0 13.501 6.081 13.501 13.501v230.367c0 4.622-2.433 9.001-6.325 11.433l-91.952 57.774c-9.001 5.595-20.677-0.851-20.677-11.433zM409.284 378.489v-163.349c0-7.419 6.081-13.501 13.501-13.501h91.952c7.419 0 13.501 6.081 13.501 13.501v183.904c0 12.163-14.717 18.123-23.11 9.365l-32.84-33.813c-4.622-4.744-11.92-5.473-17.271-1.703l-24.691 16.663c-8.879 6.203-21.042-0.243-21.042-11.068zM616.662 457.791v-244.111c0-7.419 6.081-13.501 13.501-13.501h91.952c7.419 0 13.501 6.081 13.501 13.501v354.429c0 12.649-15.812 18.366-23.839 8.636l-91.952-110.318c-2.068-2.433-3.162-5.473-3.162-8.636zM665.436 671.859l-44.881 38.921-164.93-190.229c-4.379-4.987-11.798-6.081-17.393-2.554l-187.431 119.197c-13.866 8.757-32.232 4.744-40.989-9.122v0c-8.757-13.866-4.744-32.232 9.122-40.989l201.175-127.954c22.501-14.352 52.179-9.974 69.694 10.217zM725.886 793.854l-35.759-185.485c-0.122-0.487-0.73-0.73-1.095-0.365l-142.915 123.697c-0.365 0.365-0.243 0.973 0.243 1.216l178.552 61.788c0.608 0.122 1.095-0.243 0.973-0.851h0.001z" />
<glyph unicode="&#xe906;" glyph-name="2" data-tags="2" d="M747.779 754.324h-633.204c-27.853 0-50.476-22.623-50.476-50.476v-566.429c0-27.853 22.623-50.476 50.476-50.476h633.204c27.853 0 50.476 22.623 50.476 50.476v566.308c0.122 27.975-22.501 50.598-50.476 50.598v-0.001zM595.255 700.929c0 6.933 5.595 12.649 12.649 12.649h58.261c6.933 0 12.649-5.595 12.649-12.649v-52.666c0-6.933-5.595-12.649-12.649-12.649h-58.261c-6.933 0-12.649 5.595-12.649 12.649v52.666zM183.661 700.929c0 6.933 5.595 12.649 12.649 12.649h58.261c6.933 0 12.649-5.595 12.649-12.649v-52.666c0-6.933-5.595-12.649-12.649-12.649h-58.261c-6.933 0-12.649 5.595-12.649 12.649zM742.671 155.055c0-6.933-5.595-12.649-12.649-12.649h-597.688c-6.933 0-12.649 5.595-12.649 12.649v354.429h622.987v-354.429h-0.001zM347.618 292.861l-11.19-66.41c-1.581-9.122 2.189-18.244 9.609-23.596s17.393-6.081 25.421-1.824l59.72 31.137 59.72-31.137c3.527-1.824 7.419-2.797 11.19-2.797 4.987 0 9.974 1.581 14.231 4.622 7.419 5.473 11.19 14.596 9.609 23.596l-11.19 66.41 48.044 47.192c6.568 6.446 8.879 16.055 6.081 24.812s-10.46 15.204-19.461 16.542l-66.653 9.852-30.043 60.328c-4.014 8.271-12.528 13.501-21.65 13.501s-17.636-5.23-21.772-13.501l-29.799-60.45-66.653-9.852c-9.122-1.338-16.663-7.784-19.461-16.542s-0.487-18.366 6.081-24.812l48.166-47.071zM197.648 794.219v-145.469c0-0.122 0.122-0.243 0.243-0.243h55.098c0.122 0 0.243 0.122 0.243 0.243v145.469c0 0.487-0.487 0.973-0.973 0.973h-53.639c-0.608 0-0.973-0.365-0.973-0.973h0.001zM609.243 794.219v-145.469c0-0.122 0.122-0.243 0.243-0.243h55.098c0.122 0 0.243 0.122 0.243 0.243v145.469c0 0.487-0.487 0.973-0.973 0.973h-53.639c-0.608 0-0.973-0.365-0.973-0.973h0.001z" />
<glyph unicode="&#xe907;" glyph-name="3" data-tags="3" d="M636.245 411.329h105.939c27.123 0 49.138 22.015 49.138 49.138v258.828c0 27.123-22.015 49.138-49.138 49.138h-626.879c-27.123 0-49.138-22.015-49.138-49.138v-258.95c0-27.123 22.015-49.138 49.138-49.138h36.246c27.975-92.56 109.102-163.47 206.284-177.093 69.207-9.73 133.914 9.001 184.634 45.854 4.865 3.527 11.555 3.162 15.933-1.095l191.080-191.080c4.744-4.744 12.528-4.744 17.393 0l20.92 20.92c4.744 4.744 4.744 12.528 0 17.393l-190.594 190.35c-4.379 4.379-4.622 11.19-0.973 16.055 17.758 23.475 31.259 50.111 40.016 78.816zM724.913 714.308c6.811 0 12.285-5.473 12.285-12.285v-224.407c0-6.811-5.473-12.285-12.285-12.285h-78.329c1.338 17.393 0.973 35.273-1.338 53.517-11.19 85.749-67.14 159.335-143.28 195.337h222.947zM141.82 465.332h-9.244c-6.811 0-12.285 5.473-12.285 12.285v224.407c0 6.811 5.473 12.285 12.285 12.285h153.74c-91.465-43.179-152.767-139.509-144.496-248.976zM394.080 285.685c-83.803 0-155.564 52.057-184.999 125.522-6.811 17.028-11.433 35.151-13.258 54.125-0.608 6.446-0.973 13.014-0.973 19.582 0 109.832 89.398 199.229 199.229 199.229 109.953 0 199.351-89.398 199.351-199.229 0-6.568-0.365-13.136-0.973-19.582-1.824-18.974-6.446-37.097-13.258-54.125-29.556-73.343-101.317-125.522-185.12-125.522h0.001zM393.594 498.172c29.434 0 53.639 24.083 53.639 53.639 0 29.434-24.083 53.639-53.639 53.639-29.434 0-53.639-24.083-53.639-53.639 0.122-29.434 24.204-53.639 53.639-53.639zM444.556 497.199c-14.109-11.068-31.989-17.758-50.841-17.758s-36.124 6.203-50.233 17.271c-54.368-27.732-64.22-76.14-65.802-93.412-0.122-1.338 0.487-2.433 1.46-3.284 31.745-24.934 71.397-39.53 115.305-39.53 43.179 0 83.438 15.204 115.062 40.016 1.095 0.851 1.581 2.068 1.46 3.284-2.189 18.123-12.406 65.802-66.41 93.412z" />
<glyph unicode="&#xe908;" glyph-name="4" data-tags="4" d="M420.839 689.496l-139.874-270.504c-6.325-12.285-1.338-31.745 8.271-31.745h63.977c6.081 0 11.068-8.514 11.068-19.096v-196.918c0-10.582 4.987-19.096 11.068-19.096h107.764c6.081 0 11.068 8.514 11.068 19.096v197.040c0 10.582 4.987 19.096 11.068 19.096h63.977c9.609 0 14.596 19.461 8.271 31.745l-139.874 270.504c-4.622 8.392-12.406 8.392-16.785-0.122h0.001z" />
<glyph unicode="&#xe909;" glyph-name="5" data-tags="5" d="M809.445 569.812l-87.817 117.008-1.946 1.703c-0.608 0.243-1.338 0.608-3.162 1.338-1.46 0.608-3.041 1.216-4.622 1.703l-340.685 96.574c-13.866 3.892-29.069 1.095-40.503-7.541l-190.472-143.401c-10.947-8.271-17.758-21.285-18.366-35.151l-76.262-131.847c-6.446-11.19-7.298-24.448-2.433-36.489 4.987-12.041 14.96-20.799 27.367-24.204l51.084-13.866v-190.107c0-20.677 13.866-38.921 33.691-44.638l310.52-88.060c4.135-1.216 8.392-1.703 12.528-1.703 9.974 0 19.947 3.284 27.975 9.365l220.515 166.146c11.555 8.757 18.488 22.501 18.488 36.975v180.012l54.733 41.354c20.555 15.325 24.569 44.395 9.365 64.829h0.002zM514.98 418.262l33.57-44.881c7.419-9.974 18.366-16.42 30.651-18.123 12.285-1.824 24.448 1.46 34.421 8.879l75.775 57.166v-130.752c0-1.46-0.73-2.919-1.824-3.771l-165.051-124.184c-2.068-1.581-4.135-0.851-4.865-0.487-0.608 0.243-2.676 1.581-2.676 4.257v251.895zM588.079 416.68c-1.216 0.122-2.311 0.851-3.041 1.824l-56.315 75.045 171.133 128.927 56.558-75.41c0.73-0.973 1.095-2.189 0.851-3.527-0.122-1.216-0.851-2.311-1.824-3.041l-163.835-122.968c-0.973-0.73-2.189-1.095-3.527-0.851v0.001zM640.015 650.817c0.122-0.851 0.243-3.041-1.824-4.622l-142.428-107.277c-1.216-0.851-2.676-1.216-4.135-0.73l-273.91 77.721c-2.554 0.73-3.162 2.797-3.406 3.649-0.122 0.851-0.243 3.041 1.824 4.622l142.428 107.277c0.851 0.608 1.824 0.973 2.797 0.973 0.487 0 0.851-0.122 1.216-0.243l274.032-77.721c2.676-0.608 3.284-2.676 3.406-3.649zM369.511 386.273l-259.923 70.788c-1.338 0.365-2.554 1.338-3.041 2.797-0.608 1.338-0.487 2.919 0.243 4.135l62.274 107.521 267.585-75.897-61.788-107.034c-1.095-1.946-3.284-2.797-5.352-2.311zM177.823 380.435l187.675-51.084c20.312-5.473 41.719 3.284 52.301 21.528l41.111 71.153v-282.667c0-1.46-0.73-2.919-1.824-3.771-1.216-0.851-2.676-1.095-4.135-0.73l-271.721 76.87c-2.068 0.608-3.406 2.433-3.406 4.5v164.2z" />
<glyph unicode="&#xe90a;" glyph-name="6" data-tags="6" d="M753.374 145.203l-198.864 198.743c-4.5 4.5-4.865 11.676-0.973 16.785 40.016 52.909 60.572 121.386 51.084 194.486-14.839 113.48-104.358 206.649-217.231 225.38-180.498 29.921-335.211-124.427-305.777-304.926 18.244-112.264 110.44-201.784 223.069-217.595 72.248-10.095 139.752 9.365 192.661 47.8 5.108 3.771 12.163 3.406 16.542-1.095l199.473-199.473c4.987-4.987 13.136-4.987 18.123 0l21.772 21.772c5.108 4.987 5.108 13.136 0.122 18.123zM134.401 519.822c0 114.697 93.29 207.987 207.987 207.987s207.987-93.29 207.987-207.987-93.29-207.987-207.987-207.987c-114.575 0-207.987 93.29-207.987 207.987z" />
<glyph unicode="&#xe90b;" glyph-name="10" data-tags="10" d="M811.756 481.995c-55.95 72.248-208.352 246.057-379.971 246.057-171.498 0-323.9-173.687-379.971-245.935-14.231-18.244-14.231-43.665 0-61.909 56.071-72.37 208.473-246.057 379.971-246.057 171.619 0 324.021 173.809 379.971 246.057 14.231 18.244 14.231 43.543 0 61.788v-0.001zM363.916 622.356c45.246 0 81.857-36.611 81.857-81.857s-36.611-81.857-81.857-81.857-81.857 36.611-81.857 81.857 36.611 81.857 81.857 81.857zM764.686 443.439c-45.125-59.355-179.16-216.501-332.9-216.501-153.497 0-287.654 157.267-332.9 216.501-3.527 4.622-3.527 10.825 0 15.447 24.326 31.989 74.681 92.317 139.874 141.334-17.758-31.867-28.096-68.477-28.096-107.642 0-122.116 99.007-221.001 221.001-221.001s221.001 99.007 221.001 221.001c0 39.043-10.217 75.532-27.853 107.399 65.072-48.895 115.427-109.102 139.752-141.090 3.649-4.622 3.649-10.825 0.122-15.447z" />
<glyph unicode="&#xe90c;" glyph-name="11" data-tags="11" d="M553.658 768.92h-447.597c-28.461 0-51.449-23.11-51.449-51.449v-271.599c0-28.461 23.11-51.449 51.449-51.449h3.892c1.824 0 3.284-1.46 3.284-3.284v-81.127c0-7.784 6.446-12.893 13.014-12.893 3.406 0 6.933 1.338 9.609 4.379l77.356 88.425c2.433 2.797 5.96 4.379 9.73 4.379h330.833c28.461 0 51.449 23.11 51.449 51.449v271.721c-0.122 28.34-23.11 51.449-51.571 51.449zM170.89 538.188c-25.056 0-45.368 20.312-45.368 45.368s20.312 45.368 45.368 45.368 45.368-20.312 45.368-45.368-20.312-45.368-45.368-45.368zM333.265 538.188c-25.056 0-45.368 20.312-45.368 45.368s20.312 45.368 45.368 45.368 45.368-20.312 45.368-45.368-20.312-45.368-45.368-45.368zM495.641 538.188c-25.056 0-45.368 20.312-45.368 45.368s20.312 45.368 45.368 45.368 45.368-20.312 45.368-45.368-20.312-45.368-45.368-45.368zM754.225 628.924h-92.317v-183.174c0-59.72-48.53-108.25-108.25-108.25h-298.479v-31.745c0-28.461 23.11-51.449 51.449-51.449h330.833c3.771 0 7.298-1.581 9.73-4.379l77.356-88.425c7.784-9.001 22.501-3.406 22.501 8.514v81.127c0 1.824 1.46 3.284 3.284 3.284h3.892c28.461 0 51.449 23.11 51.449 51.449v271.599c0 28.34-22.988 51.449-51.449 51.449h0.001z" />
<glyph unicode="&#xe90d;" glyph-name="1222" data-tags="1222" d="M671.031 335.432c-36.367 0-69.086-15.204-92.317-39.651l-271.477 132.82c0.973 6.325 1.581 12.528 1.581 19.096 0 6.325-0.608 12.528-1.46 18.609l270.991 131.482c23.231-24.569 56.071-40.016 92.682-40.016 70.424 0 127.589 57.044 127.589 127.468s-57.044 127.589-127.589 127.589c-70.424 0-127.468-57.044-127.468-127.589 0-6.325 0.608-12.528 1.46-18.488l-271.112-131.603c-23.231 24.569-56.071 40.016-92.56 40.016-70.424 0-127.589-57.044-127.589-127.589 0-70.424 57.044-127.468 127.589-127.468 36.246 0 69.086 15.325 92.317 39.651l271.477-132.82c-0.973-6.203-1.581-12.528-1.581-19.096 0-70.424 57.044-127.589 127.468-127.589s127.589 57.044 127.589 127.589c-0.122 70.545-57.166 127.589-127.589 127.589v0z" />
<glyph unicode="&#xe90e;" glyph-name="132" data-tags="132" d="M827.933 534.418c-4.987 15.325-18.001 26.272-33.935 28.583l-221.001 32.11-98.885 200.202c-7.176 14.474-21.65 23.475-37.705 23.475-16.177 0-30.651-9.001-37.705-23.475l-98.885-200.202-220.879-31.989c-15.933-2.311-28.948-13.258-33.935-28.583s-0.851-31.867 10.703-43.179l159.943-155.929-37.705-220.15c-2.676-15.933 3.649-31.624 16.785-41.111 7.419-5.352 16.055-8.028 24.691-8.028 6.69 0 13.379 1.581 19.582 4.865l197.648 103.872 197.648-103.872c14.231-7.541 31.259-6.325 44.273 3.162s19.461 25.299 16.785 41.111l-37.705 220.15 159.7 155.929c11.555 11.19 15.569 27.732 10.582 43.057zM737.805 499.753l-130.63-127.346c-9.974-9.73-14.474-23.596-12.163-37.219l30.894-179.89c0.851-4.622-4.135-8.271-8.271-6.081l-161.524 84.897c-6.081 3.162-12.893 4.865-19.582 4.865s-13.501-1.581-19.582-4.865l-161.524-84.897c-4.257-2.189-9.122 1.338-8.271 6.081l30.894 179.89c2.311 13.623-2.189 27.61-12.041 37.219l-130.874 127.346c-3.406 3.284-1.581 9.122 3.162 9.73l180.62 26.272c13.744 1.946 25.542 10.582 31.624 22.988l80.762 163.592c2.068 4.257 8.149 4.257 10.339 0l80.762-163.592c6.081-12.406 18.001-21.042 31.624-22.988l180.62-26.272c4.744-0.608 6.568-6.446 3.162-9.73z" />
<glyph unicode="&#xe90f;" glyph-name="142" data-tags="142" d="M827.933 534.418c-4.987 15.325-18.001 26.272-33.935 28.583l-221.001 32.11-98.885 200.202c-7.176 14.474-21.65 23.475-37.705 23.475-16.177 0-30.651-9.001-37.705-23.475l-98.885-200.202-220.879-31.989c-15.933-2.311-28.948-13.258-33.935-28.583s-0.851-31.867 10.703-43.179l159.943-155.929-37.705-220.15c-2.676-15.933 3.649-31.624 16.785-41.111 7.419-5.352 16.055-8.028 24.691-8.028 6.69 0 13.379 1.581 19.582 4.865l197.648 103.872 197.648-103.872c14.231-7.541 31.259-6.325 44.273 3.162s19.461 25.299 16.785 41.111l-37.705 220.15 159.7 155.929c11.555 11.19 15.569 27.732 10.582 43.057zM737.805 499.753l-130.63-127.346c-9.974-9.73-14.474-23.596-12.163-37.219l30.894-179.89c0.851-4.622-4.135-8.271-8.271-6.081l-161.524 84.897c-6.081 3.162-12.893 4.865-19.582 4.865s-13.501-1.581-19.582-4.865l-161.524-84.897c-4.257-2.189-9.122 1.338-8.271 6.081l30.894 179.89c2.311 13.623-2.189 27.61-12.041 37.219l-130.874 127.346c-3.406 3.284-1.581 9.122 3.162 9.73l180.62 26.272c13.744 1.946 25.542 10.582 31.624 22.988l80.762 163.592c2.068 4.257 8.149 4.257 10.339 0l80.762-163.592c6.081-12.406 18.001-21.042 31.624-22.988l180.62-26.272c4.744-0.608 6.568-6.446 3.162-9.73zM219.177 66.144c-8.636 0-17.271 2.676-24.691 8.028-13.014 9.487-19.461 25.299-16.785 41.111l37.705 220.15-159.821 155.929c-11.555 11.312-15.569 27.732-10.703 43.179 4.987 15.325 18.001 26.272 33.935 28.583l221.001 32.11 98.885 200.202c7.176 14.474 21.65 23.475 37.705 23.475 16.177 0 30.529-9.001 37.705-23.475l98.885-200.202 221.001-32.11c15.933-2.311 28.948-13.258 33.935-28.583s0.851-31.867-10.703-43.179l-159.821-155.929 37.705-220.15c2.676-15.933-3.649-31.624-16.785-41.111-13.014-9.487-30.043-10.703-44.273-3.162l-197.648 103.872-197.648-103.872c-6.203-3.284-12.893-4.865-19.582-4.865z" />
<glyph unicode="&#xe910;" glyph-name="152" data-tags="152" d="M419.744 827.18c-212 0-384.471-172.471-384.471-384.471s172.471-384.471 384.471-384.471 384.471 172.471 384.471 384.471-172.349 384.471-384.471 384.471zM419.744 109.079c-183.904 0-333.63 149.604-333.63 333.63 0 183.904 149.604 333.63 333.63 333.63s333.63-149.604 333.63-333.63c0-183.904-149.604-333.63-333.63-333.63zM417.676 481.995c52.422 0 95.236 42.814 95.236 95.236s-42.814 95.236-95.236 95.236-95.236-42.814-95.236-95.236 42.814-95.236 95.236-95.236zM508.169 480.171c-25.177-19.582-56.801-31.624-90.249-31.624s-64.22 11.068-89.276 30.651c-96.574-49.138-114.089-135.252-117.008-165.903-0.243-2.311 0.851-4.379 2.554-5.717 56.315-44.273 126.86-70.302 204.703-70.18 76.748 0 148.145 27.002 204.459 71.153 1.824 1.46 2.919 3.649 2.554 5.96-3.649 31.989-21.893 116.521-117.737 165.66z" />
<glyph unicode="&#xe911;" glyph-name="16" data-tags="16" d="M429.109 832.532c-212 0-384.471-172.471-384.471-384.471s172.471-384.471 384.471-384.471c212 0 384.471 172.471 384.471 384.471s-172.471 384.471-384.471 384.471zM429.109 114.431c-183.904 0-333.63 149.604-333.63 333.63 0 183.904 149.604 333.63 333.63 333.63s333.63-149.604 333.63-333.63c0-184.026-149.726-333.63-333.63-333.63zM489.438 411.694h127.346c20.069 0 36.367 16.298 36.367 36.367v0c0 20.069-16.298 36.367-36.367 36.367h-127.468c-9.852 0-17.88 8.028-17.88 17.88v139.509c0 20.069-16.298 36.367-36.367 36.367v0c-20.069 0-36.367-16.298-36.367-36.367v-139.631c0-9.852-8.028-17.88-17.88-17.88h-139.388c-20.069 0-36.367-16.298-36.367-36.367v0c0-20.069 16.298-36.367 36.367-36.367h139.631c9.73 0 17.758-8.028 17.758-17.758v-133.671c0-20.069 16.298-36.367 36.367-36.367v0c20.069 0 36.367 16.298 36.367 36.367v133.671c0 9.852 8.028 17.88 17.88 17.88h0.001z" />
<glyph unicode="&#xe912;" glyph-name="17" data-tags="17" d="M429.109 827.424c-212 0-384.471-172.471-384.471-384.471s172.471-384.471 384.471-384.471c212 0 384.471 172.471 384.471 384.471s-172.471 384.471-384.471 384.471zM429.109 109.322c-183.904 0-333.63 149.604-333.63 333.63 0 183.904 149.604 333.63 333.63 333.63s333.63-149.604 333.63-333.63c0-184.026-149.726-333.63-333.63-333.63zM616.784 406.707c20.069 0 36.367 16.298 36.367 36.367v0c0 20.069-16.298 36.367-36.367 36.367h-375.349c-20.069 0-36.367-16.298-36.367-36.367v0c0-20.069 16.298-36.367 36.367-36.367h375.349z" />
<glyph unicode="&#xe913;" glyph-name="18" data-tags="18" d="M429.109 827.424c-212 0-384.471-172.471-384.471-384.471s172.471-384.471 384.471-384.471c212 0 384.471 172.471 384.471 384.471s-172.471 384.471-384.471 384.471zM429.109 109.322c-183.904 0-333.63 149.604-333.63 333.63 0 183.904 149.604 333.63 333.63 333.63s333.63-149.604 333.63-333.63c0-184.026-149.726-333.63-333.63-333.63zM609.243 406.828h-141.82c-5.96 0-10.947 4.865-10.947 10.947v215.406c0 22.015-14.839 40.016-34.908 40.016h-0.73c-20.069 0-37.097-18.001-37.097-40.016v-250.557c0-26.759 21.65-48.409 48.409-48.409h178.552c20.434 0 36.975 16.907 36.367 37.462-0.608 19.826-18.001 35.151-37.827 35.151z" />
<glyph unicode="&#xe914;" glyph-name="19" data-tags="19" d="M449.057 490.023c80.762 0 146.807 66.045 146.807 146.807s-66.045 146.807-146.807 146.807-146.807-66.045-146.807-146.807 66.045-146.807 146.807-146.807zM607.054 477.374c-10.339 6.081-23.353 5.838-33.327-0.73-36.002-23.718-79.059-37.948-124.184-37.948-44.881 0-86.479 12.893-122.116 36.124-10.217 6.69-23.231 7.541-33.813 1.338-97.304-56.315-136.712-137.563-152.645-194.851-9.244-33.205 3.771-68.721 32.718-87.452 79.667-51.449 174.417-81.127 277.437-81.005 101.317 0 196.675 30.407 276.464 81.978 28.705 18.609 42.205 53.882 32.84 86.844-16.298 57.652-55.95 138.779-153.375 195.702z" />
<glyph unicode="&#xe915;" glyph-name="20" data-tags="20" d="M90.736 647.655v-333.873c0-34.908 28.34-63.247 63.247-63.247h406.73c4.622 0 8.879-1.946 11.92-5.352l95.114-108.737c3.284-3.771 7.541-5.473 11.798-5.473 8.149 0 15.933 6.203 15.933 15.812v99.736c0 2.189 1.824 4.014 4.014 4.014h4.744c34.908 0 63.247 28.34 63.247 63.247v333.873c0 34.908-28.34 63.247-63.247 63.247h-550.253c-34.908 0-63.247-28.34-63.247-63.247zM568.74 482.969c0 30.772 24.934 55.828 55.828 55.828 30.772 0 55.828-24.934 55.828-55.828 0-30.772-24.934-55.828-55.828-55.828-30.894 0.122-55.828 25.056-55.828 55.828zM369.146 482.969c0 30.772 24.934 55.828 55.828 55.828 30.772 0 55.828-24.934 55.828-55.828 0-30.772-24.934-55.828-55.828-55.828-30.894 0.122-55.828 25.056-55.828 55.828zM169.43 482.969c0 30.772 24.934 55.828 55.828 55.828s55.828-24.934 55.828-55.828c0-30.772-24.934-55.828-55.828-55.828s-55.828 25.056-55.828 55.828z" />
<glyph unicode="&#xe916;" glyph-name="21" data-tags="21" d="M272.207 418.991c0-55.755-45.198-100.953-100.953-100.953s-100.953 45.198-100.953 100.953 45.198 100.953 100.953 100.953 100.953-45.198 100.953-100.953zM527.143 418.991c0-55.755-45.198-100.953-100.953-100.953s-100.953 45.198-100.953 100.953 45.198 100.953 100.953 100.953 100.953-45.198 100.953-100.953zM782.2 418.991c0-55.755-45.198-100.953-100.953-100.953s-100.953 45.198-100.953 100.953 45.198 100.953 100.953 100.953 100.953-45.198 100.953-100.953z" />
<glyph unicode="&#xe917;" glyph-name="22" data-tags="22" d="M308.818 664.44l-30.772 54.368c-18.123 32.11-61.909 38.070-88.060 12.041l-46.706-46.706c-28.826-28.826-10.947-93.168 20.92-159.821 66.896-140.361 178.796-254.692 316.48-326.94 75.532-39.651 152.037-66.288 183.904-34.421v0l48.287 48.287c25.664 25.664 20.434 68.477-10.582 87.208l-53.031 32.11c-22.015 13.258-63.126 30.651-81.249 12.528l-26.272-19.826c-12.163-9.122-82.343 19.947-155.199 92.925-70.667 70.667-73.221 110.44-67.14 122.481l13.258 26.272c12.285 29.069-11.433 77.6-23.839 99.493z" />
<glyph unicode="&#xe918;" glyph-name="23" data-tags="23" d="M600.364 812.098c-59.599 0-115.791-23.596-157.51-65.193-41.719 41.719-97.912 65.193-157.51 65.193-122.968 0-223.069-100.101-223.069-223.069 0-93.047 54.247-199.229 161.159-315.751 80.884-88.060 168.7-156.172 193.634-175.025l25.785-19.339 25.785 19.339c25.056 18.731 112.872 86.965 193.756 175.025 106.791 116.521 161.038 222.826 161.038 315.751 0 123.089-100.101 223.069-223.069 223.069h0.001zM737.562 589.030c0-69.815-47.922-158.97-138.536-257.612-57.531-62.761-118.832-114.575-156.172-144.374-37.462 29.799-98.642 81.613-156.294 144.374-90.614 98.763-138.415 187.796-138.415 257.612 0 75.654 61.545 137.198 137.198 137.198 49.747 0 95.723-27.123 119.927-70.788l24.204-43.665c5.838-10.46 20.92-10.46 26.759 0l24.204 43.665c24.204 43.665 70.18 70.788 119.927 70.788 75.654 0 137.198-61.545 137.198-137.198z" />
<glyph unicode="&#xe919;" glyph-name="24" data-tags="24" d="M600.364 812.098c-59.599 0-115.791-23.596-157.51-65.193-41.719 41.719-97.912 65.193-157.51 65.193-122.968 0-223.069-100.101-223.069-223.069 0-93.047 54.247-199.229 161.159-315.751 80.884-88.060 168.7-156.172 193.634-175.025l25.785-19.339 25.785 19.339c25.056 18.731 112.872 86.965 193.756 175.025 106.791 116.521 161.038 222.826 161.038 315.751 0 123.089-100.101 223.069-223.069 223.069h0.001zM737.562 589.030c0-69.815-47.922-158.97-138.536-257.612-57.531-62.761-118.832-114.575-156.172-144.374-37.462 29.799-98.642 81.613-156.294 144.374-90.614 98.763-138.415 187.796-138.415 257.612 0 75.654 61.545 137.198 137.198 137.198 49.747 0 95.723-27.123 119.927-70.788l24.204-43.665c5.838-10.46 20.92-10.46 26.759 0l24.204 43.665c24.204 43.665 70.18 70.788 119.927 70.788 75.654 0 137.198-61.545 137.198-137.198z" />
<glyph unicode="&#xe91a;" glyph-name="25" data-tags="25" d="M442.61 813.68c-137.077 0-248.489-111.534-248.489-248.489 0-55.22 35.273-145.226 107.764-275.126 36.124-64.585 91.101-151.064 120.535-196.554 9.609-14.839 31.016-14.839 40.624 0 29.313 45.489 84.289 131.847 120.413 196.554 72.491 129.9 107.764 219.906 107.764 275.005 0 137.077-111.534 248.611-248.611 248.611v0-0.001zM442.61 437.966c-71.153 0-128.806 57.652-128.806 128.806s57.652 128.806 128.806 128.806c71.153 0 128.806-57.652 128.806-128.806 0.122-71.153-57.652-128.806-128.806-128.806v0z" />
<glyph unicode="&#xe91b;" glyph-name="26" data-tags="26" d="M220.879 397.949h-8.149c-24.569 0-44.516-19.947-44.516-44.516v-9.244c0-24.569 19.947-44.516 44.516-44.516h8.149c24.569 0 44.516 19.947 44.516 44.516v9.244c0 24.569-19.947 44.516-44.516 44.516zM634.663 586.232c13.258 5.473 20.677 16.785 20.677 32.475 0 20.191-11.312 32.232-30.894 32.232h-41.476v-68.477h29.434c8.757-0.122 16.177 1.216 22.258 3.771zM786.944 693.145c0 40.016-32.475 72.491-72.491 72.491h-230.002c-40.016 0-72.491-32.475-72.491-72.491v-29.921h-172.592c-17.636 0-33.57-10.339-40.746-26.394l-38.557-86.6h-63.977c-3.771 0-6.811-3.041-6.811-6.811v-35.394c0-3.771 3.041-6.811 6.811-6.811h42.084l-6.203-13.866c-2.189-4.987-5.352-9.487-9.244-13.379l-29.921-29.921c-8.392-8.392-13.014-19.704-13.014-31.502v-156.537c0-24.569 19.947-44.516 44.516-44.516h4.379v-45.246c0-24.569 19.947-44.516 44.516-44.516h97.547c24.569 0 44.516 19.947 44.516 44.516v45.246h235.84v-45.246c0-24.569 19.947-44.516 44.516-44.516h97.547c24.569 0 44.516 19.947 44.516 44.516v45.246h4.622c24.569 0 44.516 19.947 44.516 44.516v156.537c0 7.784-2.068 15.325-5.838 22.015 3.771 8.757 5.838 18.366 5.838 28.583v230.002zM527.508 483.698v211.392c0 2.797 1.703 4.5 4.5 4.5h92.56c54.855 0 86.722-30.164 86.722-80.884 0-19.096-4.744-35.273-13.501-48.165-10.095-14.96-25.664-25.664-45.976-31.38-11.555-3.284-24.691-5.108-39.286-5.108h-29.434v-72.978c0-2.797-1.703-4.5-4.5-4.5h-46.584c-2.797 0-4.5 1.703-4.5 4.5v22.623h-0.001zM197.77 498.902l39.408 101.561c1.703 4.257 5.838 7.055 10.339 7.055h164.322v-123.819h-203.73c-7.784 0-13.136 7.906-10.339 15.204v-0.001zM266.369 181.814c0-6.203-4.987-11.19-11.19-11.19h-66.167c-6.203 0-11.19 4.987-11.19 11.19v29.556h88.546v-29.556h0.001zM688.789 181.814c0-6.203-4.987-11.19-11.19-11.19h-66.167c-6.203 0-11.19 4.987-11.19 11.19v29.556h88.425v-29.556h0.122zM737.927 260.508h-608.878v145.469c0 1.46 0.243 2.919 0.851 4.257 0 0.122 0.122 0.122 0.122 0.243 0.243 0.608 0.487 1.095 0.851 1.581 0.243 0.243 0.365 0.487 0.608 0.73 0.243 0.365 0.487 0.608 0.73 0.973l23.475 23.475h261.017c10.339-27.367 36.732-46.827 67.748-46.827h135.739c-11.92-8.028-19.826-21.65-19.826-36.975v-9.244c0-24.569 19.947-44.516 44.516-44.516h8.149c24.569 0 44.516 19.947 44.516 44.516v9.244c0 15.447-7.906 29.069-19.826 36.975h36.732c8.271 0 16.055 1.46 23.475 3.892v-133.793z" />
<glyph unicode="&#xe91c;" glyph-name="27" data-tags="27" d="M484.573 450.25l278.045 278.045c20.677 20.677 20.799 54.368 0.122 75.045v-0.608c-9.974 9.974-23.353 14.96-37.462 14.96h-555.483c-13.987 0-27.367-4.865-37.34-14.717-20.92-20.677-21.042-54.125-0.243-75.045l268.315-267.342c3.162-3.162 5.717-7.419 5.717-11.92v-290.087c0-9.365-9.122-19.582-18.488-19.582h-103.264c-20.677 0-37.584-15.569-37.584-36.246v0.243c0-20.677 16.785-36.975 37.584-36.975h313.926c20.677 0 39.043 16.907 39.043 37.584v-1.095c0 20.677-18.244 36.489-39.043 36.489h-101.439c-9.365 0-17.636 10.217-17.636 19.582v279.627c-0.122 4.5 1.946 8.879 5.23 12.041zM459.517 531.134c-6.69-6.69-17.393-6.69-24.083 0l-183.539 184.026c-10.703 10.703-3.162 29.556 12.041 29.556h367.078c15.204 0 22.745-18.853 12.041-29.556l-183.538-184.026z" />
<glyph unicode="&#xe91d;" glyph-name="28" data-tags="28" d="M218.204 655.561v-322.319c0-11.312-9.001-18.488-20.191-16.785-22.988 3.284-57.774-1.095-86.844-23.596-26.88-20.799-36.124-51.328-36.002-85.262 0.243-63.126 53.882-113.724 118.102-108.859 55.706 4.257 100.831 58.139 100.831 114.089v422.298c0 8.392 6.081 15.569 14.352 16.907l378.998 64.95c10.46 1.824 20.069-6.325 20.069-16.907v-275.734c0-11.312-9.001-18.488-20.191-16.785-22.988 3.284-53.76 4.257-82.951-18.244-26.88-20.799-40.016-56.679-39.895-90.614 0.243-63.126 53.882-113.724 118.102-108.859 55.706 4.257 100.831 58.139 100.831 114.089v424.974c0 42.692-38.435 75.045-80.397 67.748l-427.528-73.221c-33.205-5.717-57.288-34.421-57.288-67.869z" />
<glyph unicode="&#xe91e;" glyph-name="29" data-tags="29" d="M429.109 265.251c-50.841 0-92.195-41.354-92.195-92.195s41.354-92.195 92.195-92.195 92.195 41.354 92.195 92.195c0 50.841-41.354 92.195-92.195 92.195zM429.109 424.83c-75.045 0-145.956-36.489-189.621-97.669-7.055-9.852-9.852-21.772-7.784-33.813 1.946-11.92 8.514-22.38 18.366-29.434 19.582-13.987 49.26-9.122 63.247 10.582 26.759 37.34 70.059 59.72 115.913 59.72s89.155-22.258 115.913-59.72c7.055-9.852 17.515-16.42 29.434-18.366 2.554-0.365 5.108-0.608 7.541-0.608 9.365 0 18.488 2.919 26.272 8.392 20.312 14.474 25.056 42.814 10.582 63.126-43.908 61.18-114.818 97.79-189.864 97.79h0.001zM429.109 584.286c-105.818 0-207.135-45.125-277.924-123.941-8.149-9.001-12.163-20.555-11.555-32.718 0.608-12.041 5.96-23.231 14.96-31.259 8.392-7.541 19.096-11.555 30.286-11.555 12.771 0 25.177 5.473 33.691 14.96 53.639 59.72 130.387 94.020 210.541 94.020s156.902-34.178 210.541-93.898c8.149-9.001 19.217-14.352 31.259-14.96 12.163-0.608 23.718 3.406 32.718 11.555s14.352 19.217 14.96 31.259c0.608 12.041-3.406 23.718-11.555 32.718-70.788 78.573-172.106 123.819-277.924 123.819h0.002zM796.066 589.759c-97.425 99.371-227.812 153.983-366.957 153.983s-269.531-54.733-366.957-153.983c-17.515-17.88-17.271-46.584 0.608-63.977 8.514-8.392 19.826-13.014 31.745-13.014 12.285 0 23.718 4.744 32.353 13.501 80.397 81.857 187.675 126.86 302.371 126.86s221.974-45.125 302.25-126.86c8.514-8.636 19.826-13.501 31.867-13.623 11.312-0.73 23.475 4.5 32.11 13.014s13.501 19.826 13.623 31.867c0.122 12.163-4.5 23.596-13.014 32.232z" />
<glyph unicode="&#xe91f;" glyph-name="30" data-tags="30" d="M685.991 249.804v0c-7.298 22.988-21.893 40.624-47.192 53.882-25.907 13.623-52.787 19.096-76.019 22.501-9.244 1.46-18.366 2.433-27.367 3.284 0 1.824-0.122 3.771-0.608 5.717 7.055 8.514 13.014 20.555 11.433 37.219 0 0.608-0.122 1.338-0.122 1.824 0.365 0.365 0.851 0.73 1.338 1.095 9.974 8.028 19.704 16.298 29.434 24.569l8.149 6.811c6.933 5.352 9.974 11.068 10.947 16.42 26.515 19.826 46.341 41.962 60.328 67.504 14.839 27.002 19.217 52.787 13.136 78.573-8.028 34.3-29.799 57.531-66.775 75.775-26.029 12.893-54.004 17.15-83.195 17.15h-0.365c-0.851 6.081-2.554 9.609-4.865 12.649 9.001-0.122 18.123 1.338 27.488 2.919 9.609 1.581 38.678 7.176 51.206 36.611 2.676 6.203 7.419 18.001 0.122 29.069-7.419 11.19-20.069 11.312-26.88 11.312l-17.88 0.122h-19.461c-0.122 1.824-0.487 3.649-0.973 5.717 6.203 13.014 8.028 26.394 9.487 37.462 1.216 8.879-0.73 13.987-5.838 19.704-3.406 3.892-9.73 6.325-20.555 6.325h-74.315c-10.582 0-16.907-2.311-20.312-6.203-4.987-5.595-7.055-11.798-5.96-20.677 1.216-10.339 2.797-20.799 7.298-31.989 0.608-1.581 1.338-5.23 2.068-6.811-0.73-1.824-1.216-1.338-1.46-8.636h-0.608c-12.771 0-25.421 2.433-38.192 2.676-10.947-0.243-18.244-1.946-23.353-8.757-3.527-4.622-6.933-12.041-3.284-23.961 4.987-16.42 16.177-28.948 32.962-36.246 16.42-7.055 32.84-8.028 47.436-8.028h0.851c-3.649-7.298-5.717-10.825-5.473-17.88 0.122-3.527 0.73-6.446 1.946-9.609-4.865-1.581-9.609-2.919-14.474-4.5-17.028-5.473-34.178-10.825-51.084-16.907-45.611-16.298-93.655-35.881-135.495-69.694-57.774-46.706-79.303-105.939-63.977-175.876 11.798-54.247 39.043-100.831 80.762-138.536 5.108-4.622 28.096-22.38 32.962-25.664 19.947-14.109 40.746-25.177 61.788-33.205-0.243-2.919 0.122-5.108 0.243-5.96 1.703-23.961 12.285-44.030 32.597-61.545-2.068-9.365-0.73-18.609 4.014-26.515 6.811-11.312 19.461-21.285 34.543-21.285l122.481-3.406c15.447 0 28.218 9.852 35.029 21.042 4.744 7.784 6.081 18.609 4.135 28.096 7.541 6.446 13.744 14.231 18.609 21.772 11.433 0.122 21.893 2.676 29.921 4.5 24.448 5.595 44.152 20.312 56.315 41.111 11.798 20.434 13.136 44.881 7.055 68.477zM381.309 255.521l-1.946-1.581c-3.771-3.041-7.784-6.325-11.676-10.095-6.081 2.554-11.676 5.108-17.028 7.784 12.406 4.257 24.934 7.176 37.34 9.244-2.311-1.824-4.5-3.649-6.69-5.352zM440.299 433.83c-1.46-1.216-3.041-2.554-4.5-4.135-9.609 12.041-19.339 22.745-27.61 31.38-5.108 5.352-12.285 8.149-19.461 7.663-11.433-0.851-18.731-8.879-21.407-12.771l-1.581-1.338c-4.379-3.527-17.758-14.109-13.501-32.962 1.946-8.636 7.906-13.258 11.312-15.933 11.676-9.852 23.475-19.704 35.637-29.921 0.487-0.487 1.216-1.216 2.189-1.946-2.189-13.014 1.46-26.272 10.339-37.584 0.365-0.365 0.608-0.851 0.973-1.216 0-0.243-0.122-0.487-0.122-0.73-0.243-1.216-0.365-2.433-0.487-3.649-29.556-2.189-56.436-7.298-81.492-15.325-16.663-5.352-31.259-11.92-44.273-19.947-36.611 35.637-55.95 76.262-59.234 124.062-1.703 25.785 7.298 48.895 27.61 70.424 24.204 25.785 55.22 41.841 82.343 54.125 31.502 14.231 63.734 25.299 97.304 36.002-8.028-14.231-8.392-30.772-0.851-45.489-8.757-16.298-7.055-32.353 4.865-49.747 2.311-3.284 3.284-6.446 3.406-10.703 0.487-12.649 0-25.907-1.46-40.259zM512.061 429.816c-1.46 1.46-2.919 2.797-4.379 4.014-1.581 16.542-2.068 30.407-1.338 43.179 0.122 1.946 0.608 4.744 3.892 9.609 10.825 16.298 12.163 32.11 3.892 47.436 9.001 17.15 7.419 37.34-4.987 51.693-2.311 2.676-3.041 5.473-3.162 13.379 34.786 3.041 62.639-4.622 85.019-23.353 15.933-13.501 19.096-29.313 9.609-48.287-5.352-10.703-10.339-17.271-17.393-22.501-10.217-7.663-17.758-17.515-24.326-26.394-2.554-3.406-5.108-6.811-7.906-10.095-0.243-0.243-0.487-0.608-0.851-0.973-4.865-0.973-10.339-3.771-15.204-10.339l-22.866-27.367zM623.352 220.857c-0.608-3.406-2.554-13.623-19.582-16.298-6.203 19.217-17.636 35.151-35.029 48.895-2.554 1.946-4.865 3.892-7.176 5.838 15.447-2.676 30.286-6.568 44.395-12.893 1.338-0.608 2.554-1.46 4.987-2.919 13.987-8.392 13.987-14.96 12.406-22.623z" />
<glyph unicode="&#xe920;" glyph-name="31" data-tags="31" d="M809.324 276.563c0 0-2.797 4.014-4.014 13.866-1.46 12.285-11.068 22.866-16.907 27.245-2.676 9.122-16.663 32.597-90.371 47.071-52.057 10.217-69.086 16.42-74.437 19.096l-3.041 2.797c-2.433 2.311-36.489 33.57-89.519 59.842 0.487 5.96 0.851 11.92 0.851 18.001 0 116.764-94.993 211.636-211.636 211.636s-211.636-94.993-211.636-211.636c0-21.285 3.284-41.841 9.122-61.301-17.515-15.447-35.637-32.718-36.732-38.435-2.311-12.285-3.406-26.637-4.5-39.165-1.216-14.231-2.554-30.286-5.108-34.421-4.865-7.663-11.676-43.422 1.824-69.937 7.906-15.569 21.528-25.056 39.773-28.096-0.243 2.068-0.487 4.135-0.608 6.325 0 1.46-0.243 2.919-0.243 4.5 0 0.608 0.122 1.216 0.122 1.703 0.973 41.841 35.151 75.654 77.235 75.654 42.692 0 77.356-34.664 77.356-77.356 0-1.46-0.122-2.797-0.243-4.135-0.122-2.068-0.243-4.014-0.487-5.96-0.243-2.068-0.487-4.014-0.973-5.96 95.114-2.433 218.082-5.23 314.656-7.176-0.608 1.946-1.216 3.892-1.581 5.96-0.487 1.946-0.851 3.892-1.095 5.96-0.608 3.771-0.973 7.419-0.973 11.312 0 42.692 34.664 77.356 77.356 77.356s77.356-34.664 77.356-77.356c0-4.987-0.487-9.852-1.338-14.474-0.365-2.068-0.851-3.892-1.46-5.96-0.608-1.946-1.216-4.014-1.946-5.838 6.811-0.122 10.825-0.243 11.312-0.243-0.243 0 7.419-1.095 17.636-1.095 32.11 0 51.206 9.73 55.22 28.218l0.122 1.216v69.451l-1.095 1.338zM490.411 463.629c-0.122-19.217-3.406-37.462-9.365-54.733-7.298-21.164-18.731-40.503-33.327-56.923-31.137-35.273-76.627-57.774-127.346-57.774s-96.209 22.501-127.468 57.774c-4.135 4.622-8.028 9.487-11.555 14.596-15.325 21.772-25.664 47.314-29.434 74.802-0.973 7.541-1.703 15.082-1.703 22.866 0 93.776 76.262 170.16 170.16 170.16s170.16-76.262 170.16-170.16c-0.122-0.122-0.122-0.365-0.122-0.608zM534.319 351.973h-34.908c7.176 11.433 13.258 23.475 18.244 36.246l22.866-13.258c10.825-6.325 6.446-22.988-6.203-22.988h0.001zM409.405 444.29l-74.194 20.434v117.008c0 13.136-10.582 23.718-23.718 23.718s-23.718-10.582-23.718-23.718v-129.9c0-4.622 1.338-8.879 3.284-12.893 3.771-7.784 10.339-14.109 19.096-16.542l86.6-23.839c2.068-0.608 4.257-0.851 6.325-0.851 10.46 0 19.947 6.933 22.866 17.393 1.581 5.595 0.608 11.312-1.703 16.177-2.797 6.081-7.906 11.068-14.839 13.014zM716.277 202.612c0-34.595-28.045-62.639-62.639-62.639s-62.639 28.045-62.639 62.639c0 34.595 28.045 62.639 62.639 62.639s62.639-28.045 62.639-62.639zM253.355 202.612c0-34.595-28.045-62.639-62.639-62.639s-62.639 28.045-62.639 62.639c0 34.595 28.045 62.639 62.639 62.639s62.639-28.045 62.639-62.639z" />
<glyph unicode="&#xe921;" glyph-name="32" data-tags="32" d="M800.566 766.974c-0.122 1.216-0.243 2.433-0.365 3.649-6.568 31.137-34.056 54.49-67.14 54.49h-599.634c-46.706 0-84.897-38.192-84.897-84.897v-583.822c0-46.463 37.584-84.046 84.046-84.046h600.486c37.948 0 68.234 30.651 68.234 68.599l-0.73 626.028v-0.001zM717.372 121.607h-583.822c-19.461 0-35.516 15.933-35.516 35.516v583.457c0 19.461 15.69 35.151 35.151 35.151h599.999c8.392 0 15.082-5.108 18.001-12.406 0.365-0.973 0.973-1.581 0.973-2.433v-604.499c-0.122-19.217-15.69-34.786-34.786-34.786z" />
<glyph unicode="&#xe922;" glyph-name="33" data-tags="33" d="M752.401 492.942v-357.226c0-10.947-8.879-19.947-19.947-19.947h-615.081c-10.947 0-19.947 8.879-19.947 19.947v615.081c0 10.947 8.879 19.947 19.947 19.947h615.081c8.392 0 15.569-5.23 18.488-12.528 1.703-4.379 5.595-7.419 10.339-7.419h27.61c7.055 0 12.406 6.446 10.947 13.379-6.203 31.624-34.056 55.463-67.504 55.463h-614.959c-37.948-0.122-68.721-30.894-68.721-68.842v-615.081c0-37.948 30.772-68.721 68.721-68.721h615.081c37.948 0 68.721 30.772 68.721 68.721v357.226c0 6.081-4.987 11.068-11.068 11.068h-26.759c-5.96 0-10.947-4.987-10.947-11.068h-0.002zM755.077 694.239l-332.049-332.049-197.891 197.77c-17.271 17.271-45.368 17.271-62.639 0l-6.446-6.446c-17.271-17.271-17.271-45.368 0-62.639l235.597-235.597c17.271-17.271 45.368-17.271 62.639 0l369.876 369.876c17.271 17.271 17.271 45.368 0 62.639l-6.446 6.446c-17.271 17.271-45.368 17.271-62.639 0h-0.002z" />
<glyph unicode="&#xe923;" glyph-name="34" data-tags="34" d="M739.022 635.127h-92.682c-12.771 0-26.515 9.852-30.529 22.015l-23.961 71.883c-4.014 12.041-17.758 22.015-30.529 22.015h-262.72c-12.771 0-26.515-9.852-30.529-22.015l-23.961-71.883c-4.014-12.041-17.758-22.015-30.529-22.015h-92.682c-42.449 0-77.235-34.786-77.235-77.235v-347.739c0-42.449 34.786-77.235 77.235-77.235h618.122c42.449 0 77.235 34.786 77.235 77.235v347.739c0 42.449-34.786 77.235-77.235 77.235zM429.961 210.153c-106.669 0-193.148 86.479-193.148 193.148s86.479 193.148 193.148 193.148 193.148-86.479 193.148-193.148-86.479-193.148-193.148-193.148zM429.961 493.185c-49.625 0-89.763-40.259-89.763-89.763 0-49.625 40.259-89.763 89.763-89.763 49.625 0 89.763 40.259 89.763 89.763 0.122 49.503-40.138 89.763-89.763 89.763z" />
<glyph unicode="&#xe924;" glyph-name="35" data-tags="35" d="M757.996 768.19h-655.705c-28.826 0-52.301-23.353-52.301-52.301v-586.62c0-28.826 23.353-52.301 52.301-52.301h655.705c28.826 0 52.301 23.353 52.301 52.301v586.741c0 28.826-23.475 52.179-52.301 52.179v0.001zM600.121 713.092c0 7.176 5.838 13.014 13.014 13.014h60.328c7.176 0 13.014-5.838 13.014-13.014v-54.49c0-7.176-5.838-13.014-13.014-13.014h-60.328c-7.176 0-13.014 5.838-13.014 13.014v54.49zM173.93 713.092c0 7.176 5.838 13.014 13.014 13.014h60.328c7.176 0 13.014-5.838 13.014-13.014v-54.49c0-7.176-5.838-13.014-13.014-13.014h-60.328c-7.176 0-13.014 5.838-13.014 13.014zM752.644 147.757c0-7.176-5.838-13.014-13.014-13.014h-618.852c-7.176 0-13.014 5.838-13.014 13.014v367.078h645.002v-367.078zM188.283 809.666v-150.578c0-0.122 0.122-0.243 0.243-0.243h57.166c0.122 0 0.243 0.122 0.243 0.243v150.578c0 0.487-0.487 0.973-0.973 0.973h-55.585c-0.608 0-1.095-0.365-1.095-0.973h0.001zM614.473 809.666v-150.578c0-0.122 0.122-0.243 0.243-0.243h57.044c0.122 0 0.243 0.122 0.243 0.243v150.578c0 0.487-0.487 0.973-0.973 0.973h-55.585c-0.487 0-0.973-0.365-0.973-0.973h0.001zM344.698 331.54c0-31.841-25.812-57.652-57.652-57.652s-57.652 25.812-57.652 57.652c0 31.841 25.812 57.652 57.652 57.652s57.652-25.812 57.652-57.652zM490.411 331.54c0-31.841-25.812-57.652-57.652-57.652s-57.652 25.812-57.652 57.652c0 31.841 25.812 57.652 57.652 57.652s57.652-25.812 57.652-57.652zM636.123 331.54c0-31.841-25.812-57.652-57.652-57.652s-57.652 25.812-57.652 57.652c0 31.841 25.812 57.652 57.652 57.652s57.652-25.812 57.652-57.652z" />
<glyph unicode="&#xe925;" glyph-name="36" data-tags="36" d="M429.231 827.667c-209.446 0-379.849-170.403-379.849-379.849s170.403-379.849 379.849-379.849c209.446 0 379.849 170.403 379.849 379.849s-170.403 379.849-379.849 379.849zM438.961 326.796c-71.518 0-129.536 58.017-129.536 129.536s58.017 129.536 129.536 129.536c71.518 0 129.536-58.017 129.536-129.536s-58.017-129.536-129.536-129.536zM584.43 400.625l173.079 126.495 15.69-67.869-188.769-58.625z" />
<glyph unicode="&#xe926;" glyph-name="37" data-tags="37" d="M768.334 612.261c0-105.939-85.992-191.81-191.81-191.81-105.939 0-191.932 85.992-191.932 191.81s85.992 191.932 191.932 191.932c105.939 0 191.81-85.992 191.81-191.932v0zM161.281 81.591c16.055 0 30.286 7.176 39.895 18.366l299.574 275.856c9.974 9.122 7.176 25.664-5.473 30.651-42.57 16.785-78.694 46.463-103.628 84.168-7.055 10.703-22.623 11.433-30.286 1.095l-238.394-317.21c-9.365-13.136-14.839-24.569-14.839-39.773 0-29.313 23.839-53.152 53.152-53.152v0z" />
<glyph unicode="&#xe927;" glyph-name="38" data-tags="38" d="M275.856 387.003c20.191 0 39.773 1.46 58.261 4.014v219.42c-18.488 2.676-38.070 4.014-58.261 4.014-115.548 0-209.203-45.976-209.203-102.534v-22.258c0-56.679 93.655-102.655 209.203-102.655v0-0.001zM275.856 272.428c20.191 0 39.773 1.46 58.261 4.014v64.342c-18.488-2.676-38.070-4.014-58.261-4.014-100.831 0-184.999 35.029-204.824 81.613-2.919-6.811-4.379-13.866-4.379-21.042v-22.258c0-56.679 93.655-102.655 209.203-102.655v0zM334.238 221.222v4.987c-18.488-2.676-38.070-4.014-58.261-4.014-100.831 0-184.999 35.029-204.824 81.613-2.919-6.811-4.379-13.866-4.379-21.042v-22.258c0-56.679 93.655-102.655 209.203-102.655 23.11 0 45.368 1.824 66.167 5.23-5.108 11.433-7.784 23.353-7.784 35.881v22.258zM577.498 788.137c-115.548 0-209.203-45.976-209.203-102.534v-22.258c0-56.679 93.655-102.534 209.203-102.534s209.203 45.976 209.203 102.534v22.258c0.122 56.679-93.655 102.534-209.203 102.534v0zM577.498 510.457c-100.831 0-184.999 35.029-204.824 81.613-2.919-6.811-4.379-13.744-4.379-21.042v-22.258c0-56.679 93.655-102.534 209.203-102.534s209.203 45.976 209.203 102.534v22.258c0 7.176-1.581 14.231-4.379 21.042-19.704-46.584-103.872-81.613-204.824-81.613v0zM577.498 396.003c-100.831 0-184.999 35.029-204.824 81.613-2.919-6.811-4.379-13.866-4.379-21.042v-22.258c0-56.679 93.655-102.655 209.203-102.655s209.203 45.976 209.203 102.655v22.258c0 7.176-1.581 14.231-4.379 21.042-19.704-46.706-103.872-81.613-204.824-81.613v0zM577.498 275.225c-100.831 0-184.999 35.029-204.824 81.613-2.919-6.811-4.379-13.866-4.379-21.042v-22.258c0-56.679 93.655-102.534 209.203-102.534s209.203 45.976 209.203 102.534v22.258c0 7.176-1.581 14.231-4.379 21.042-19.704-46.584-103.872-81.613-204.824-81.613v0zM577.498 160.65c-100.831 0-184.999 35.029-204.824 81.613-2.919-6.811-4.379-13.866-4.379-21.042v-22.258c0-56.679 93.655-102.534 209.203-102.534s209.203 45.976 209.203 102.534v22.258c0 7.176-1.581 14.231-4.379 21.042-19.704-46.584-103.872-81.613-204.824-81.613v0z" />
<glyph unicode="&#xe928;" glyph-name="39" data-tags="39" d="M546.36 273.157c-11.433-18.731-25.542-37.34-36.246-54.368 65.558-2.433 93.898-9.73 144.861-21.164 27.853-6.325 48.773-13.014 63.977-19.096 6.933-2.797 6.933-12.528 0-15.204-15.325-6.081-36.124-12.771-63.977-19.096-63.126-14.231-143.401-22.137-226.11-22.137s-162.862 7.784-226.11 22.137c-27.853 6.325-48.773 13.014-63.977 19.096-6.933 2.797-6.933 12.528 0 15.204 15.325 6.081 36.124 12.771 63.977 19.096 49.382 11.19 75.532 18.366 138.901 20.92-10.703 17.028-23.475 35.516-34.908 54.247-166.754-10.947-255.909-52.422-255.909-101.926 0-57.896 169.308-104.723 378.025-104.723s378.025 46.949 378.025 104.723c0 50.111-90.857 92.074-260.531 102.291zM341.658 272.792c11.433-18.731 22.988-37.219 33.813-54.247 12.163-19.339 23.353-36.611 31.989-50.111 8.636-13.379 27.975-13.379 36.611 0 8.757 13.501 19.947 30.894 32.11 50.355 10.825 17.028 22.38 35.637 33.813 54.368 15.325 25.056 30.286 50.355 42.814 72.735 65.437 117.373 97.304 198.621 97.304 248.368 0 123.697-100.709 224.407-224.407 224.407s-224.407-100.709-224.407-224.407c0-49.868 31.867-131.117 97.304-248.368 12.649-22.501 27.732-47.922 43.057-73.099zM425.825 712.24c64.22 0 116.278-52.057 116.278-116.278s-52.057-116.278-116.278-116.278c-64.22 0-116.278 52.057-116.278 116.278-0.122 64.22 51.936 116.278 116.278 116.278z" />
<glyph unicode="&#xe929;" glyph-name="40" data-tags="40" d="M662.273 365.353l-313.804-181.107c-49.625-28.705-111.778 7.176-111.778 64.585v362.213c0 57.409 62.153 93.168 111.778 64.585l313.683-181.107c49.747-28.705 49.747-100.466 0.122-129.171z" />
<glyph unicode="&#xe92a;" glyph-name="41" data-tags="41" d="M731.481 619.437h-333.265l277.072 92.925c9.122-7.541 20.799-12.041 33.57-12.041 29.069 0 52.787 23.718 52.787 52.787s-23.596 52.787-52.787 52.787c-24.934 0-45.733-17.393-51.328-40.624l-434.583-145.834h-97.425c-32.597 0-54.977-26.15-54.977-58.747v-389.58c0-32.475 22.38-57.652 54.977-57.652h606.081c32.475 0 59.112 25.177 59.112 57.652v389.58c-0.122 32.597-26.637 58.747-59.234 58.747zM337.157 173.664c-104.237 0-188.769 84.533-188.769 188.769s84.533 188.769 188.769 188.769c104.237 0 188.769-84.533 188.769-188.769s-84.533-188.769-188.769-188.769zM337.157 450.372c-48.53 0-87.817-39.286-87.817-87.817s39.286-87.817 87.817-87.817c48.53 0 87.817 39.286 87.817 87.817 0 48.409-39.286 87.817-87.817 87.817z" />
<glyph unicode="&#xe92b;" glyph-name="42" data-tags="42" d="M426.434 816.599c-203.243 0-368.538-165.295-368.538-368.538s165.295-368.538 368.538-368.538c203.243 0 368.538 165.295 368.538 368.538s-165.295 368.538-368.538 368.538zM647.678 394.787l-277.924-160.794c-34.786-20.069-77.843 4.987-77.843 45.246v321.589c0 40.259 43.057 65.315 77.843 45.246l278.167-160.794c34.908-20.069 34.664-70.424-0.243-90.492v-0.001z" />
<glyph unicode="&#xe92c;" glyph-name="43" data-tags="43" d="M261.625 653.737l-33.205 58.869c-19.582 34.786-66.896 41.232-95.114 13.014l-50.476-50.476c-31.137-31.137-11.798-100.588 22.623-172.714 72.37-151.794 193.148-275.37 341.901-353.456 81.613-42.814 164.322-71.64 198.743-37.219v0l52.179 52.179c27.732 27.732 22.015 73.951-11.433 94.263l-57.288 34.664c-23.718 14.352-68.234 33.083-87.817 13.501l-28.461-21.528c-13.136-9.974-88.911 21.528-167.727 100.466-76.383 76.383-79.059 119.44-72.613 132.333l14.231 28.461c13.501 31.502-12.285 84.046-25.542 107.642zM367.565 525.296l183.904 64.22c8.392 2.919 15.082 13.987 11.068 18.123l-27.367 27.367c-2.676 2.676-0.851 8.636 4.014 13.501l90.371 90.371c4.865 4.865 6.568 10.825 4.014 13.501l-46.219 45.854c-2.676 2.676-8.636 0.851-13.501-4.014l-90.371-90.371c-4.865-4.865-10.825-6.568-13.501-4.014l-27.245 27.488c-4.135 4.135-15.204-2.676-18.123-11.068l-64.22-183.904c-1.946-5.717 1.338-9.001 7.176-7.055zM783.417 661.521l-183.904-64.22c-8.392-2.919-15.082-13.987-11.068-18.123l27.367-27.367c2.676-2.676 0.851-8.636-4.014-13.501l-90.371-90.371c-4.865-4.865-6.568-10.825-4.014-13.501l46.098-46.098c2.676-2.676 8.636-0.851 13.501 4.014l90.371 90.371c4.865 4.865 10.825 6.568 13.501 4.014l27.367-27.367c4.135-4.135 15.204 2.676 18.123 11.068l64.22 183.904c1.946 5.838-1.46 9.122-7.176 7.176z" />
<glyph unicode="&#xe92d;" glyph-name="44" data-tags="44" d="M708.493 563.001h-78.086v83.438c0 56.436-45.976 102.412-102.412 102.412h-198.743c-56.436 0-102.412-45.976-102.412-102.412v-83.438h-77.235c-44.638 0-80.884-36.246-80.884-80.884v-300.912c0-44.638 36.246-80.884 80.884-80.884h558.888c44.638 0 80.884 36.246 80.884 80.884v301.033c0 44.638-36.124 80.762-80.884 80.762v0.001zM297.749 646.439c0 17.393 14.109 31.502 31.502 31.502h198.864c17.393 0 31.502-14.109 31.502-31.502v-83.438h-261.869v83.438h0.001z" />
<glyph unicode="&#xe92e;" glyph-name="46" data-tags="46" d="M452.949 356.96c19.096 0 34.664 15.569 34.664 34.786 0 18.366-14.474 33.448-32.597 34.543l-127.833 94.020c-2.433 1.824-5.96 1.46-8.028-0.73s-2.311-5.717-0.365-8.028l99.736-124.062c2.068-17.271 16.785-30.529 34.421-30.529zM298.114 278.752h285.222v-67.748h-285.222zM795.944 401.963c-4.622 80.154-36.854 157.024-90.614 216.622-72.491 80.276-175.998 123.089-284.005 117.373-81.005-4.257-158.727-36.611-218.933-91.101-75.775-68.599-117.494-162.376-117.494-264.18 0-60.572 15.447-120.17 44.516-172.592l1.703-3.162h70.545l38.678 22.258c4.257 2.433 7.298 6.446 8.514 11.19s0.608 9.73-1.824 13.866l-8.879 15.325c-5.108 8.757-16.298 11.798-25.056 6.69l-45.246-26.029c-20.191 41.476-30.407 85.871-30.407 132.333 0 6.325 0.243 12.893 0.608 19.461l55.098-9.73c9.73-1.703 18.974 4.744 20.677 14.474l3.284 18.488c0.851 4.744-0.243 9.487-2.919 13.379-2.797 3.892-6.811 6.568-11.555 7.298l-56.193 9.974c12.893 51.693 39.165 99.007 76.505 137.563l38.070-45.368c6.568-7.784 18.123-8.757 25.907-2.311l13.623 11.433c3.771 3.162 6.081 7.541 6.446 12.406s-1.095 9.609-4.257 13.379l-38.557 45.976c44.030 31.624 95.358 50.72 149.24 55.585v-61.18c0-10.095 8.271-18.366 18.366-18.366h17.758c10.095 0 18.366 8.271 18.366 18.366v61.301c53.882-4.865 105.21-23.961 149.24-55.585l-38.557-45.976c-3.162-3.771-4.622-8.514-4.257-13.379s2.676-9.365 6.446-12.406l13.623-11.433c7.784-6.568 19.339-5.473 25.907 2.311l38.070 45.368c37.34-38.557 63.734-85.871 76.505-137.563l-55.706-9.852c-4.865-0.851-9.001-3.527-11.798-7.541s-3.892-8.879-3.041-13.744l3.041-17.515c0.851-4.865 3.527-9.001 7.541-11.798s8.879-3.892 13.744-3.041l54.612 9.609c0.365-6.568 0.608-13.014 0.608-19.461 0-46.463-10.217-90.979-30.407-132.333l-45.246 26.15c-8.757 5.108-20.069 2.068-25.056-6.69l-8.879-15.325c-5.108-8.757-2.068-20.069 6.69-25.056l38.678-22.258h70.545l1.703 3.162c32.84 58.504 48.044 125.522 44.030 193.634z" />
<glyph unicode="&#xe92f;" glyph-name="47" data-tags="47" d="M81.857 513.254c-6.446 0-11.676-5.23-11.676-11.676v-221.488c0-6.446 5.23-11.676 11.676-11.676h31.624c6.446 0 11.676 5.23 11.676 11.676v221.488c0 6.446-5.23 11.676-11.676 11.676h-31.624zM715.426 432.127h-8.879c-1.216 0-2.189-0.122-2.189 1.095l0.243 78.816c0.243 13.258-4.987 23.353-16.177 31.38-15.447 11.19-61.18 43.422-68.842 48.409-5.96 3.892-12.528 5.717-20.434 5.595h-77.6c-3.162 0-4.744 2.554-4.744 5.838v2.433c0 3.284 0.487 2.919 3.771 2.919h71.397c10.217 0 19.704 11.433 19.704 21.65v14.231c0 10.217-9.487 21.285-19.704 21.285h-236.813c-10.217 0-14.596-11.068-14.596-21.285v-14.231c0-10.217 4.379-21.65 14.596-21.65h77.235c3.284 0 10.339 0.365 10.339-2.919v-2.797c0-1.581-2.797-3.041-3.892-4.135s-3.771-1.703-5.23-1.703l-78.329 0.243c-15.082 0.487-28.705-4.014-42.57-13.987-16.542-12.041-33.205-24.569-49.26-36.854-3.041-2.311-6.933-3.649-10.582-3.527-15.569 0.122-31.502 0.122-47.071 0-22.745-0.122-38.313-15.569-38.435-38.557l0.243-55.585c0-1.216-0.973-3.406-2.068-3.406h-7.298c-12.285 0-19.461-7.419-19.461-19.704v-85.992c0-12.285 7.176-20.799 19.461-20.799h7.055c1.216 0 2.068-1.703 2.068-2.919v-49.624c0-6.446 0-16.663 3.162-24.934 4.257-11.068 13.136-17.393 25.542-17.393h317.575c4.135 0 8.392 1.216 12.163 2.676 13.136 5.108 26.272 10.46 39.408 15.69 12.649 4.987 25.299 10.095 37.948 14.96 1.338 0.487 3.041 0.851 5.23 0.851 19.096 0.122 39.895 0.122 58.99 0.122 23.231 0 40.503 15.69 40.503 39.043v65.558c0 1.216-0.73 2.068 0.608 2.068l7.298 0.243c12.893 0 12.893 9.122 13.014 13.379v39.165c0 7.419-6.081 14.352-13.379 14.352z" />
<glyph unicode="&#xe930;" glyph-name="48" data-tags="48" d="M793.269 665.656c-6.811 6.811-15.933 10.703-25.664 10.703h-559.74l-18.731 62.153c-0.365 0.973-0.608 1.824-0.973 2.554-3.649 16.42-18.001 28.218-35.273 28.218l-75.775-0.243c-19.947-0.243-36.124-16.542-36.002-36.489s16.298-36.124 36.367-36.124l48.53 0.243 139.996-464.625c-13.744-16.785-21.528-37.827-21.528-59.477 0-51.936 42.205-94.141 94.141-94.141s94.141 42.205 94.141 94.141c0 2.919-0.122 5.96-0.365 8.879h160.186c-0.243-2.919-0.365-5.838-0.365-8.879 0-51.936 42.205-94.141 94.141-94.141s94.141 42.205 94.141 94.141-42.205 94.141-94.141 94.141c-16.785 0-33.083-4.379-47.436-12.893h-252.746c-16.542 9.609-35.151 14.231-54.855 12.528l-8.514 28.34 361.362 0.243c14.839 0 27.975 9.122 33.448 22.745 0.73 1.338 1.703 3.527 2.554 6.203l82.343 303.831c0.73 2.919 1.216 5.838 1.216 8.879l0.122 3.162c0 9.852-3.771 18.974-10.582 25.907zM686.478 217.208c24.691 0 44.638-19.947 44.638-44.638s-19.947-44.638-44.638-44.638-44.638 19.947-44.638 44.638 19.947 44.638 44.638 44.638zM338.739 217.208c24.691 0 44.638-19.947 44.638-44.638s-19.947-44.638-44.638-44.638-44.638 19.947-44.638 44.638 20.069 44.638 44.638 44.638zM656.8 367.542l-355.767-0.243-71.275 236.57h491.141l-64.099-236.327z" />
<glyph unicode="&#xe931;" glyph-name="49" data-tags="49" d="M812.364 477.738c-1.216 10.703-13.744 18.853-24.569 18.853-34.908 0-65.923 20.555-78.938 52.301-13.258 32.475-4.744 70.424 21.285 94.263 8.149 7.541 9.244 20.069 2.311 28.826-17.88 22.745-38.192 43.179-60.45 61.058-8.636 6.933-21.407 5.96-28.948-2.311-22.745-25.177-63.612-34.543-95.114-21.407-32.84 13.866-53.517 47.071-51.449 82.83 0.73 11.19-7.541 20.92-18.731 22.258-28.461 3.284-57.288 3.406-85.871 0.243-11.068-1.216-19.217-10.703-18.853-21.772 1.216-35.394-19.704-67.991-52.179-81.37-31.137-12.771-71.761-3.406-94.385 21.528-7.541 8.271-20.069 9.244-28.826 2.433-22.866-17.88-43.665-38.435-61.666-60.936-7.055-8.757-5.96-21.407 2.311-28.948 26.515-24.083 35.151-62.274 21.285-95.114-13.136-31.38-45.733-51.571-82.951-51.571-12.041 0.365-20.677-7.784-22.015-18.731-3.406-28.583-3.406-57.774-0.122-86.722 1.216-10.703 14.109-18.731 25.056-18.731 33.205 0.851 65.072-19.704 78.451-52.301 13.379-32.475 4.744-70.424-21.285-94.263-8.149-7.541-9.244-20.069-2.311-28.705 17.758-22.623 38.070-43.057 60.328-61.058 8.757-7.055 21.407-6.081 29.069 2.311 22.866 25.177 63.612 34.543 95.114 21.407 32.962-13.744 53.639-47.071 51.571-82.83-0.608-11.19 7.541-21.042 18.731-22.258 14.596-1.703 29.191-2.554 43.908-2.554 13.987 0 27.853 0.73 41.841 2.311 11.068 1.216 19.217 10.703 18.853 21.893-1.216 35.394 19.704 67.991 52.179 81.37 31.38 12.771 71.761 3.406 94.385-21.528 7.541-8.149 19.947-9.244 28.826-2.433 2.068 1.581 3.892 3.284 5.96 4.987 0 0 40.138 36.489 55.706 56.071 0.487 0.608 0.851 1.338 1.216 1.946 5.473 8.636 4.135 20.069-3.527 27.002-26.515 23.961-35.151 62.274-21.407 95.114 13.014 30.894 44.273 51.693 77.965 51.693l4.744-0.122c10.947-0.851 21.042 7.541 22.38 18.731 3.284 28.218 3.284 57.288 0.122 86.235zM622.136 322.661l-6.568-7.541-128.927 128.927c4.987 12.528 7.784 26.272 7.784 40.624 0 60.936-49.382 110.196-110.196 110.196-9.852 0-19.461-1.46-28.461-3.892v0c-1.338-5.23 0.122-10.46 4.257-14.596 0 0 47.557-47.922 63.369-63.734 1.703-1.703 1.703-5.595 1.46-7.055l-0.122-1.095c-1.581-17.515-4.744-38.435-7.298-46.584l-2.068-2.068c-8.149-2.676-29.434-5.717-47.192-7.298v0.122l-0.851-0.243h-0.73c-1.946 0-4.744 0.487-7.298 3.041-16.542 16.542-62.274 61.909-62.274 61.909-4.135 4.135-8.271 4.987-11.068 4.987-2.554 0-5.108-0.73-7.298-2.068-3.041-9.974-4.622-20.677-4.622-31.624 0-60.936 49.382-110.196 110.196-110.196 16.663 0 32.475 3.771 46.584 10.46l129.171-129.171-8.271-5.595c-1.824-1.095-3.649-2.189-5.473-3.284-32.962-19.826-71.518-31.38-112.872-31.38-121.386 0-219.906 98.398-219.906 219.785s98.398 219.906 219.906 219.906c121.386 0 219.906-98.398 219.906-219.906 0-38.921-10.217-75.532-28.096-107.156-0.973-1.824-1.946-3.649-3.041-5.473z" />
<glyph unicode="&#xe932;" glyph-name="50" data-tags="50" d="M747.657 745.567c-1.216 8.028-7.419 14.474-15.447 15.933l-292.763 54.004c-2.311 0.487-4.622 0.487-6.933 0l-292.763-54.004c-8.028-1.46-14.231-7.906-15.447-15.933-1.216-8.271-29.921-204.581 27.732-374.376 58.261-171.863 265.153-302.493 273.91-307.966 3.041-1.946 6.568-2.919 10.095-2.919s7.055 0.973 10.095 2.919c8.757 5.473 215.649 136.104 273.91 307.966 57.531 169.795 28.826 366.105 27.61 374.376h0.001zM664.22 384.327c-46.827-138.171-213.095-243.016-220.15-247.516-2.433-1.581-5.352-2.311-8.149-2.311s-5.595 0.73-8.149 2.311c-7.055 4.379-173.322 109.345-220.15 247.516-46.341 136.468-23.231 294.222-22.258 300.912 0.973 6.446 5.96 11.555 12.406 12.771l235.353 43.422c1.824 0.365 3.771 0.365 5.595 0l235.353-43.422c6.446-1.216 11.433-6.325 12.406-12.771 0.973-6.69 23.961-164.443-22.258-300.912zM566.308 592.557l-134.401-168.335c-2.433-3.041-7.055-3.284-9.852-0.608l-97.304 97.304c-2.554 2.554-6.69 2.554-9.365 0l-25.907-25.907c-2.554-2.554-2.554-6.69 0-9.365l136.712-136.712c2.554-2.554 6.69-2.554 9.365 0v0c0.122 0.122 0.365 0.365 0.487 0.608l26.759 33.448 142.428 178.431c2.311 2.797 1.824 6.933-1.095 9.244l-28.705 22.866c-2.797 2.311-6.933 1.824-9.122-0.973v-0.001z" />
<glyph unicode="&#xe933;" glyph-name="51" data-tags="51" d="M685.018 535.634c-0.487 7.784-2.433 20.312-4.257 28.096-7.784 32.84-18.853 34.3-23.596 62.761-5.352 32.11-22.745 49.99-26.272 78.573-3.649 28.583-18.731 41.962-21.893 44.638s12.406 1.338 18.731 19.217c1.824 5.108 3.649 9.001 5.352 12.041 3.527 6.325 1.946 8.757-5.23 6.203-5.352-1.946-10.703-4.379-12.163-6.568-1.946-2.919-0.365 4.135 2.189 11.798 2.433 7.298 7.298 15.569 8.149 19.704 0.487 1.946-0.851 3.162-3.162 3.406h-1.216c-2.189-0.122-4.865-1.095-7.663-2.919-5.717-4.014-11.92-9.609-15.325-16.663-7.176-15.082-20.069-21.042-30.407-19.217-9.365 1.581-69.815-6.325-112.872-30.164-6.811-3.771-13.744-1.095-18.366 5.23-6.203 8.271-17.636 16.907-38.313 12.285-26.029-5.717-46.949-11.312-61.18-12.041-7.784-0.365-9.487-2.311-3.527-7.541 8.149-7.055 19.582-15.325 27.975-16.055-13.379-1.581-62.639-13.866-93.047-86.965-2.919-7.176-7.055-19.217-10.095-26.515-26.759-66.045-84.654-71.64-84.654-92.803 0-8.271-0.851-344.455-1.095-429.718 0-8.879 9.244-14.596 17.15-10.703 50.233 24.691 191.932 92.439 195.702 95.479 6.203 4.865 16.055 5.595 23.961 4.865 5.717-0.608 12.649 0.487 19.461 5.717 16.055 12.406 41.111 16.663 62.518 23.718 21.407 7.176 63.126 41.719 84.533 41.111 21.528-0.608-43.422-63.126-50.598-63.612-7.176-0.608-8.879-23.231-23.231-10.703s-32.718 3.649-38.678 0-41.111-54.733-10.095-62.518 26.759 13.136 47.071 8.271c20.191-4.744 27.975 17.88 47.557 22.015 7.541 1.581 12.041 5.108 14.717 9.001 4.622 6.325 7.663 6.446 15.325 4.865 4.014-0.851 8.636 0.73 13.014 8.392 11.068 19.339 20.555 17.636 25.299 40.138 4.744 22.623 25.056 27.975 13.744 75.045-8.028 33.327-8.879 46.706-7.784 58.017 0.73 7.784 2.433 20.677-0.851 27.732-7.906 16.177-31.137 32.11-60.936 17.758-21.772-10.339-37.705-20.191-47.557-26.759-6.446-4.379-11.555-1.946-12.893 5.838-2.554 14.839-9.244 39.53-27.732 62.031-23.475 28.705 10.46 117.251 24.691 150.699 3.041 7.176 10.947 12.771 17.515 13.136 4.744 0.243 9.609 0.851 11.433 2.189 4.135 2.919 15.569-19.096 26.15-18.366 10.703 0.608 19.704-37.584 42.205-44.638 22.623-7.176 22.623-25.056 13.744-27.367-8.879-2.433 9.609-17.88 17.88-12.528 6.933 4.5 20.434-18.001 35.394-8.028 6.568 4.379 14.96 14.109 18.366 21.164 3.162 6.446 5.595 16.298 4.865 31.259zM278.897 236.182l22.38 117.008c1.095 5.96-3.041 11.676-9.122 12.406l-58.625 6.69c-2.068 0.243-3.041 2.554-1.946 4.257l117.737 184.512c1.581 2.433 5.23 1.216 5.108-1.703l-8.879-113.967c-0.608-8.392 5.473-15.933 13.866-16.907l55.098-6.446c2.068-0.243 3.162-2.676 1.946-4.379l-132.698-183.661c-1.703-2.311-5.473-0.73-4.865 2.189z" />
<glyph unicode="&#xe934;" glyph-name="52" data-tags="52" d="M557.55 400.869l-72.491 72.491 79.789 79.911 157.146 157.146c18.488 18.488 18.488 48.53 0 67.018l-6.811 6.811c-9.244 9.244-21.407 13.866-33.448 13.866-12.163 0-24.204-4.622-33.448-13.866l-236.935-236.935-237.056 236.935c-18.488 18.488-48.53 18.488-67.018 0l-6.811-6.811c-9.244-9.244-13.866-21.407-13.866-33.448 0-12.163 4.622-24.204 13.866-33.448l237.056-237.056-229.758-229.758c-18.488-18.488-18.488-48.53 0-67.018l6.811-6.811c9.244-9.244 21.407-13.866 33.448-13.866 12.163 0 24.204 4.622 33.448 13.866l229.758 229.758 229.637-229.637c18.488-18.488 48.53-18.488 67.018 0l6.811 6.811c9.244 9.244 13.866 21.407 13.866 33.448 0 12.163-4.622 24.204-13.866 33.448l-157.146 157.146z" />
<glyph unicode="&#xe935;" glyph-name="53" data-tags="53" d="M700.344 626.005l-355.037-355.037-211.514 211.514c-18.488 18.488-48.53 18.488-67.018 0l-6.811-6.811c-18.488-18.488-18.488-48.53 0-67.018l251.895-251.895c18.488-18.488 48.53-18.488 67.018 0l395.418 395.418c18.488 18.488 18.488 48.53 0 67.018l-6.811 6.811c-18.609 18.488-48.652 18.488-67.14 0z" />
<glyph unicode="&#xe936;" glyph-name="54" data-tags="54" d="M769.308 538.918h-52.909c-4.379 16.42-9.73 27.123-15.69 38.8l37.34 37.584c10.947 10.947 16.907 25.421 16.907 40.989s-6.081 30.043-16.907 40.989l-52.909 53.031c-10.947 10.947-25.421 17.028-40.868 17.028s-29.921-5.96-40.868-16.907l-35.759-35.759c-13.258 6.811-27.245 12.649-41.597 17.393v49.017c0 32.232-24.204 56.558-56.193 56.558h-74.924c-33.57 0-60.936-25.056-60.936-55.828v-49.503c-14.109-4.865-27.123-10.217-39.043-15.933l-33.813 34.056c-10.947 10.947-25.421 17.028-40.868 17.028s-29.921-6.081-40.868-17.028l-52.909-53.031c-22.501-22.623-22.38-59.234 0-81.735l33.813-34.421c-7.055-12.893-12.893-25.299-17.636-42.449h-47.436c-32.962 0-59.842-25.542-59.842-56.801v-74.924c0-32.11 27.975-60.328 59.842-60.328h49.99c4.744-16.42 10.582-26.637 17.028-38.192l-35.637-35.394c-22.501-22.501-22.501-59.112 0-81.613l53.031-52.909c10.825-10.825 25.421-16.907 40.868-16.907s29.921 5.96 40.868 16.907l37.462 37.462c11.555-5.717 23.231-10.46 35.394-14.596l-0.243-54.855c0-31.259 28.461-58.625 60.936-58.625h74.924c31.016 0 56.315 26.637 56.315 59.234v54.125c13.014 4.014 24.934 9.122 37.948 16.177l39.165-39.043c10.947-10.947 25.542-16.907 40.989-16.907s30.043 5.96 40.868 16.907l53.152 53.031c22.501 22.623 22.501 59.234 0 81.735l-38.921 38.921c4.014 8.392 7.541 17.271 10.703 25.421 1.216 3.162 2.433 6.203 3.527 9.001h55.95c31.016 0 55.22 26.515 55.22 60.328v74.924c-0.243 32.597-23.961 57.044-55.463 57.044zM758.726 412.545h-69.329c-15.447 0-28.218-9.609-31.867-24.083-5.473-21.65-14.352-42.814-26.272-62.761-7.055-11.555-6.203-25.907 1.946-36.732l11.19-14.596c0.973-1.216 1.946-2.433 2.797-3.162l38.557-38.557-41.962-41.962-39.286 39.043-12.893 12.649c-10.825 10.339-27.245 12.163-40.016 4.257-22.137-13.623-36.124-21.528-64.829-27.123-15.325-3.041-26.515-16.663-26.515-32.353v-73.221h-60.693v47.314l0.851 23.475c0.608 15.812-9.974 29.799-25.299 33.327-22.745 5.352-44.030 14.109-65.315 26.759-5.108 3.041-10.947 4.622-16.785 4.622-8.514 0-16.663-3.284-22.866-9.244l-49.747-49.382-41.962 41.841 48.044 48.165c10.825 10.947 12.649 27.732 4.379 40.624-13.623 21.528-23.231 43.422-29.191 67.018-3.771 14.352-16.542 23.961-31.867 23.961l-68.842 0.73v59.963h67.504c15.447 0 29.313 11.798 32.232 27.367 5.473 28.34 14.352 46.341 28.705 69.694 8.392 13.623 5.838 31.259-5.717 41.597l-45.368 44.76 41.719 41.719 37.219-37.462 5.595-6.568c10.46-12.406 28.705-15.204 42.327-6.69 24.691 15.204 57.531 25.542 70.545 29.313 14.231 4.135 23.718 16.785 23.718 31.624v64.95l60.693 0.243v-47.8l1.095-20.312c0.851-14.474 10.825-26.515 24.812-30.043 25.056-6.325 49.138-16.542 69.572-29.434 13.136-8.392 30.529-6.325 41.232 4.865l47.314 47.557 41.841-41.841-38.192-38.192-10.703-10.339c-11.068-10.703-13.136-27.367-5.352-40.381 12.285-20.434 21.65-44.030 27.123-68.113 3.406-15.204 16.907-26.272 31.989-26.272h67.869v-60.815zM431.785 614.937c-91.344 0-165.66-74.316-165.66-165.66s74.316-165.66 165.66-165.66 165.66 74.316 165.66 165.66-74.316 165.66-165.66 165.66zM431.785 349.419c-55.098 0-99.98 44.881-99.98 99.98s44.881 99.98 99.98 99.98c55.098 0 99.858-44.881 99.858-99.98 0.122-55.22-44.76-99.98-99.858-99.98z" />
<glyph unicode="&#xe937;" glyph-name="55" data-tags="55" d="M600.242 597.787l-51.206 51.084-344.334-344.212 102.412-102.412 344.212 344.334zM605.229 705.429l-12.771-12.771 102.412-102.412 12.771 12.771c28.218 28.218 28.218 74.072 0 102.291v0c-28.34 28.34-74.072 28.34-102.412 0.122v-0.001zM163.835 263.914l-34.056-117.129c-1.946-6.811 4.014-13.379 11.068-11.798l125.279 26.759-102.291 102.169z" />
<glyph unicode="&#xe938;" glyph-name="56" data-tags="56" d="M799.472 708.592l-692.802-250.314c-12.893-4.622-15.082-21.893-3.771-29.556l103.628-70.667 470.099 247.881-398.094-297.141v-120.413c0-8.149 9.244-13.136 16.055-8.636l87.695 58.139 86.357-58.869c7.906-5.352 18.731-3.041 23.839 5.108l313.318 516.804c2.554 4.135-1.581 9.487-6.325 7.663v0z" />
<glyph unicode="&#xe939;" glyph-name="57" data-tags="57" d="M425.582 830.829c-212.244 0-384.228-171.984-384.228-384.228s171.984-384.228 384.228-384.228c212.244 0 384.228 171.984 384.228 384.228s-172.106 384.228-384.228 384.228zM203.973 219.397c-5.352-1.095-9.974 3.892-8.514 9.122l26.15 90.006 78.694-78.694-96.331-20.434zM331.806 271.090l-78.694 78.694 264.544 264.544 78.573-78.573-264.423-264.666zM639.529 579.178l-9.852-9.852-78.573 78.573 9.852 9.852c21.772 21.772 56.923 21.772 78.694 0 21.65-21.65 21.65-56.923-0.122-78.573h0.001z" />
<glyph unicode="&#xe93a;" glyph-name="58" data-tags="58" d="M653.881 406.342c0.122 0.851 0.243 1.824 0.365 2.676-0.122-0.851-0.243-1.824-0.365-2.676zM655.584 423.127c-0.122-1.338-0.243-2.676-0.243-3.892 0 1.338 0.122 2.554 0.243 3.892zM655.949 436.141v-1.946c0 0.73 0.122 1.338 0.122 2.068 0 122.238-99.007 221.244-221.244 221.244h-0.122c122.238 0 221.244-99.128 221.244-221.366zM816.135 478.955c-1.216 10.825-13.744 18.853-24.691 18.853-35.151 0-66.41 20.677-79.424 52.544-13.379 32.718-4.744 70.91 21.407 94.871 8.271 7.541 9.244 20.191 2.311 28.948-18.001 22.866-38.435 43.543-60.815 61.423-8.757 7.055-21.528 6.081-29.191-2.311-22.866-25.299-63.977-34.786-95.723-21.528-33.083 13.866-53.882 47.436-51.814 83.316 0.73 11.312-7.541 21.042-18.853 22.38-28.705 3.284-57.652 3.406-86.357 0.243-11.068-1.216-19.339-10.825-18.974-22.015 1.216-35.637-19.826-68.477-52.544-81.857-31.38-12.771-72.126-3.527-94.993 21.65-7.541 8.271-20.191 9.244-28.948 2.433-22.988-18.001-43.908-38.678-62.031-61.423-7.055-8.757-6.081-21.528 2.311-29.191 26.759-24.204 35.273-62.639 21.407-95.723-13.258-31.502-45.976-51.936-83.438-51.936-12.163 0.365-20.799-7.784-22.137-18.853-3.406-28.826-3.406-58.139-0.122-87.208 1.216-10.825 14.109-18.853 25.177-18.853 33.448 0.851 65.437-19.826 78.938-52.544 13.379-32.718 4.744-70.788-21.407-94.871-8.271-7.541-9.244-20.191-2.311-28.948 17.88-22.745 38.313-43.422 60.693-61.423 8.757-7.055 21.528-6.081 29.191 2.311 22.988 25.421 64.099 34.786 95.723 21.528 33.083-13.866 54.004-47.314 51.936-83.316-0.608-11.312 7.541-21.164 18.853-22.38 14.717-1.703 29.434-2.554 44.152-2.554 14.109 0 28.096 0.73 42.084 2.311 11.068 1.216 19.339 10.825 18.974 22.015-1.338 35.516 19.826 68.477 52.544 81.857 31.624 12.893 72.248 3.406 94.993-21.65 7.541-8.271 20.069-9.244 28.948-2.433 2.068 1.581 4.014 3.284 5.96 4.987 0 0 40.381 36.732 56.071 56.436 0.487 0.608 0.851 1.338 1.216 1.946 5.595 8.636 4.257 20.191-3.527 27.245-26.759 24.204-35.394 62.639-21.528 95.723 13.014 31.137 44.638 52.057 78.451 52.057l4.744-0.122c10.947-0.851 21.164 7.541 22.501 18.853 3.406 28.826 3.406 58.139 0.243 87.208zM434.583 214.775c-122.238 0-221.366 99.128-221.366 221.366s99.128 221.366 221.366 221.366h0.244c122.238 0 221.244-99.007 221.244-221.244 0-0.73-0.122-1.338-0.122-2.068 0-3.771-0.122-7.419-0.365-11.19-0.122-1.338-0.243-2.676-0.243-3.892-0.243-3.406-0.608-6.811-0.973-10.217-0.122-0.851-0.243-1.824-0.365-2.676-14.717-108.007-107.277-191.445-219.42-191.445zM655.949 434.317c0-3.771-0.122-7.419-0.365-11.19 0.243 3.649 0.365 7.419 0.365 11.19zM655.219 419.235c-0.243-3.406-0.608-6.811-0.973-10.217 0.487 3.406 0.73 6.811 0.973 10.217z" />
<glyph unicode="&#xe93b;" glyph-name="59" data-tags="59" d="M664.949 372.164c-67.991-67.991-164.078-106.061-283.397-111.048v-104.358c0-24.812-31.502-41.476-51.328-21.528l-230.367 230.367c-13.258 13.258-11.555 33.083 0 43.057l230.367 230.367c19.947 19.826 51.328 3.284 51.328-21.528v-106.061h26.515c87.817 0 243.624 14.96 303.223 120.9 4.987 9.974 16.542 14.96 26.515 14.96 18.244 0 29.799-14.96 29.799-29.799 0.122-4.987 0.122-142.55-102.655-245.327v-0.002z" />
<glyph unicode="&#xe93c;" glyph-name="61" data-tags="61" d="M139.388 787.651v-105.696c0-0.122 0.122-0.243 0.243-0.243h47.314c0.122 0 0.243 0.122 0.243 0.243v105.696c0 0.487-0.487 0.973-0.973 0.973h-45.854c-0.487 0-0.973-0.365-0.973-0.973zM477.883 787.651v-105.696c0-0.122 0.122-0.243 0.243-0.243h47.314c0.122 0 0.243 0.122 0.243 0.243v105.696c0 0.487-0.487 0.973-0.973 0.973h-45.854c-0.608 0-0.973-0.365-0.973-0.973zM160.43 335.432h338.009c0.365 0 0.73 0.365 0.73 0.73v46.463c0 0.365-0.365 0.73-0.73 0.73h-338.009c-0.365 0-0.73-0.365-0.73-0.73v-46.463c0-0.487 0.243-0.73 0.73-0.73zM159.335 415.707h338.009c0.365 0 0.73 0.365 0.73 0.73v46.463c0 0.365-0.365 0.73-0.73 0.73h-338.009c-0.365 0-0.73-0.365-0.73-0.73v-46.463c0-0.365 0.365-0.73 0.73-0.73zM161.767 495.375h338.009c0.365 0 0.73 0.365 0.73 0.73v46.463c0 0.365-0.365 0.73-0.73 0.73h-338.009c-0.365 0-0.73-0.365-0.73-0.73v-46.463c0-0.365 0.365-0.73 0.73-0.73zM161.767 573.218h338.009c0.365 0 0.73 0.365 0.73 0.73v46.463c0 0.365-0.365 0.73-0.73 0.73h-338.009c-0.365 0-0.73-0.365-0.73-0.73v-46.463c0-0.365 0.365-0.73 0.73-0.73zM456.841 315.849c-7.784 0-13.744-0.608-16.907-1.46v-53.882c3.892-1.095 8.879-1.46 14.839-1.46 21.65 0 34.786 10.46 34.786 29.678 0 18.366-13.014 27.123-32.718 27.123v0.001zM499.046 260.873v2.068c-0.73-0.973-1.46-2.068-2.311-3.041-1.095-1.095-2.189-2.189-3.406-3.162h1.703c2.189 0 4.014 1.824 4.014 4.135zM685.991 439.668h-58.747v266.977c0 23.961-19.461 43.422-43.422 43.422h-506.223c-23.961 0-43.422-19.461-43.422-43.422v-506.344c0-23.961 19.461-43.422 43.422-43.422h267.828c22.623-39.895 65.315-66.775 114.453-66.775h226.11c72.613 0 131.603 58.869 131.603 131.603v86.357c0 72.735-58.869 131.603-131.603 131.603zM163.835 256.737h164.565v-35.029c0-5.717 0.487-11.312 1.216-16.907h-236.813c-5.96 0-10.825 4.865-10.825 10.825v475.694c0 5.96 4.865 10.825 10.825 10.825h475.815c5.96 0 10.825-4.865 10.825-10.825v-251.773h-119.562c-72.613 0.122-131.482-58.747-131.482-131.482v-3.527h-164.565c-2.311 0-4.135-1.824-4.135-4.135v-39.651c0-2.189 1.824-4.014 4.135-4.014zM507.439 289.577c0-10.947-2.919-19.704-8.392-26.637v-2.068c0-2.311-1.824-4.135-4.135-4.135h-1.703c-9.487-7.906-23.475-12.041-38.921-12.041-5.352 0-10.339 0.243-14.352 1.216v-55.463h-17.88v136.955c8.636 1.46 19.947 2.676 34.3 2.676 17.636 0 30.651-4.135 38.921-11.555 7.663-6.568 12.163-16.663 12.163-28.948zM627.244 211.248c-0.608-0.73-1.338-1.46-1.946-2.189-13.014-13.014-34.3-19.947-61.301-19.947-12.771 0-23.475 0.608-32.475 1.581v136.468c10.947 1.703 23.839 2.919 38.070 2.919 3.406 0 6.69-0.122 9.974-0.365 20.555-1.338 35.759-7.176 46.219-16.907 0.608-0.487 1.095-1.095 1.581-1.581 11.312-11.19 18.001-26.759 18.001-48.165-0.122-21.407-6.446-39.165-18.123-51.814zM743.157 314.025h-56.801v-46.098h52.422v-14.839h-52.422v-62.761h-17.88v138.658h74.681v-14.96zM570.321 315.849c-9.244 0-16.298-0.851-21.042-1.824v-109.467c4.5-0.851 11.068-0.973 18.123-0.973 38.313 0 58.99 21.407 58.99 58.869 0.365 32.597-18.123 53.395-56.071 53.395z" />
<glyph unicode="&#xe93d;" glyph-name="62" data-tags="62" d="M142.672 787.651v-105.696c0-0.122 0.122-0.243 0.243-0.243h47.314c0.122 0 0.243 0.122 0.243 0.243v105.696c0 0.487-0.487 0.973-0.973 0.973h-45.854c-0.608 0-0.973-0.365-0.973-0.973zM481.045 787.651v-105.696c0-0.122 0.122-0.243 0.243-0.243h47.314c0.122 0 0.243 0.122 0.243 0.243v105.696c0 0.487-0.487 0.973-0.973 0.973h-45.854c-0.487 0-0.973-0.365-0.973-0.973zM164.93 495.375h338.009c0.365 0 0.73 0.365 0.73 0.73v46.463c0 0.365-0.365 0.73-0.73 0.73h-338.009c-0.365 0-0.73-0.365-0.73-0.73v-46.463c0.122-0.365 0.365-0.73 0.73-0.73zM164.93 573.218h338.009c0.365 0 0.73 0.365 0.73 0.73v46.463c0 0.365-0.365 0.73-0.73 0.73h-338.009c-0.365 0-0.73-0.365-0.73-0.73v-46.463c0.122-0.365 0.365-0.73 0.73-0.73zM502.33 260.873v2.068c-0.73-0.973-1.46-2.068-2.311-3.041-1.095-1.095-2.189-2.189-3.406-3.162h1.703c2.189 0 4.014 1.824 4.014 4.135zM689.275 439.668h-58.747v266.977c0 23.961-19.461 43.422-43.422 43.422h-506.344c-23.961 0-43.422-19.461-43.422-43.422v-506.344c0-23.961 19.461-43.422 43.422-43.422h267.95c22.623-39.895 65.315-66.775 114.453-66.775h226.11c72.613 0 131.603 58.869 131.603 131.603v86.357c0 72.735-58.99 131.603-131.603 131.603zM481.897 335.432c-22.258-10.825-35.637-33.691-35.637-66.167 0-43.543 25.056-71.64 68.477-71.64 13.987 0 28.218 2.919 37.584 7.419l4.744-18.244c-8.514-4.257-25.421-8.514-47.071-8.514-50.233 0-87.938 31.745-87.938 90.128 0 27.488 9.244 50.598 25.177 67.018 13.866 14.231 32.84 23.353 55.22 25.785 4.135 0.487 8.271 0.73 12.528 0.73 22.258 0 36.246-4.744 42.327-7.906l-5.595-18.731c-8.757 4.257-21.164 7.419-35.881 7.419-4.622 0-9.122-0.365-13.379-1.095-7.541-1.095-14.352-3.162-20.555-6.203zM582.728 439.668h-81.37v19.826c0 2.311-1.824 4.135-4.135 4.135h-331.198c-2.311 0-4.135-1.824-4.135-4.135v-39.651c0-2.311 1.824-4.135 4.135-4.135h221.609c-12.528-8.879-23.596-19.826-32.353-32.475h-188.283c-2.311 0-4.135-1.824-4.135-4.135v-39.651c0-2.311 1.824-4.135 4.135-4.135h167.484c-1.824-8.879-2.919-18.001-2.919-27.367v-3.527h-164.565c-2.311 0-4.135-1.824-4.135-4.135v-39.651c0-2.311 1.824-4.135 4.135-4.135h164.565v-34.786c0-5.717 0.487-11.312 1.216-16.907h-236.691c-5.96 0-10.825 4.865-10.825 10.825v475.694c0 5.96 4.865 10.825 10.825 10.825h475.815c5.96 0 10.825-4.865 10.825-10.825v-251.652zM675.045 180.962h-25.421l-58.139 178.066h24.812l27.732-87.695c7.663-24.083 14.231-45.733 18.974-66.531h0.487c4.987 20.555 12.406 43.057 20.312 66.288l30.164 87.938h24.569l-63.491-178.066z" />
<glyph unicode="&#xe93e;" glyph-name="63" data-tags="63" d="M573.605 793.611l-138.536-344.698-138.536 344.698h-244.232v-711.777h198.013v333.873l134.401-333.873h100.588l134.522 333.995v-333.995h198.986v711.777h-245.206z" />
<glyph unicode="&#xe93f;" glyph-name="64" data-tags="64" d="M215.041 111.268c33.935 6.69 57.044 37.34 70.302 68.964h-17.88c-7.663 0-15.204 0.122-22.745 0.487-7.784-15.933-19.582-29.678-37.219-32.353-5.473 4.744-12.406 7.663-20.191 7.663-17.15 0-31.016-13.866-31.016-31.016s13.987-31.016 31.137-31.016c12.163 0 22.623 7.055 27.61 17.271zM698.397 93.997c17.15 0 31.016 13.866 31.016 31.016s-13.866 31.016-31.016 31.016c-6.811 0-13.136-2.311-18.244-6.081-15.082 4.987-25.785 18.244-33.327 32.962-11.433-1.946-21.65-2.676-29.313-2.676h-13.623c10.825-29.678 30.894-58.504 65.923-67.504 4.865-10.947 15.933-18.731 28.583-18.731zM647.678 685.604l-63.369 63.369c-11.676-2.919-47.314-25.907-57.896-37.097l84.289-84.289c11.068 10.582 33.813 45.854 36.975 58.017zM794.12 495.618h-37.948v290.087c0 6.933-5.595 12.649-12.649 12.649h-54.855c-3.162 0-6.203-1.216-8.514-3.284l-53.031-41.232c-10.339 2.554-14.352-1.46-21.65-4.379l43.3-43.3c3.162 8.028 9.73 15.447 7.298 25.421l24.812 13.258c8.514 2.797 17.271 4.257 26.272 4.257v0-253.355h-632.109c-13.987 0-25.177-11.312-25.177-25.177v-25.177c0-13.987 11.312-25.177 25.177-25.177h15.69c1.946-9.73 4.379-21.042 7.541-33.935l17.636-84.654c24.691-91.465 74.802-106.304 134.036-108.25 5.717-0.122 11.555-0.243 17.393-0.243h350.171c7.176 0 15.325 0.487 24.204 1.703v0c38.8 5.717 89.155 27.853 112.751 100.101l28.705 125.157h10.947c0.73 0 1.338 0.122 1.946 0.243 13.014 0.973 23.231 11.798 23.231 25.056v25.177c0 13.744-11.312 25.056-25.177 25.056v-0.002zM593.066 232.047v0 0z" />
<glyph unicode="&#xe940;" glyph-name="65" data-tags="65" d="M480.072 458.278h175.755c19.461 0 35.151 15.69 35.151 35.151v153.010c0 19.461-15.69 35.151-35.151 35.151h-175.755c-19.461 0-35.151-15.69-35.151-35.151v-152.888c0-19.461 15.812-35.273 35.151-35.273zM207.622 458.278h175.755c19.461 0 35.151 15.69 35.151 35.151v153.010c0 19.461-15.69 35.151-35.151 35.151h-175.755c-19.461 0-35.151-15.69-35.151-35.151v-152.888c0-19.461 15.69-35.273 35.151-35.273zM765.78 552.297c-29.191 0-52.787-23.596-52.787-52.787v-82.587c-11.312 7.663-24.934 12.163-39.53 12.163h-483.356c-14.717 0-28.34-4.5-39.53-12.163v82.587c0 29.069-23.596 52.787-52.787 52.787-29.069 0-52.787-23.596-52.787-52.787v-228.542c0-29.069 23.596-52.787 52.787-52.787h17.636c0-19.461 15.69-35.151 35.151-35.151s35.151 15.69 35.151 35.151h492.235c0-19.461 15.69-35.151 35.151-35.151s35.151 15.69 35.151 35.151h17.636c29.069 0 52.787 23.596 52.787 52.787v228.664c-0.122 29.069-23.718 52.666-52.909 52.666z" />
<glyph unicode="&#xe941;" glyph-name="66" data-tags="66" d="M807.134 310.011c0 1.095-0.122 2.068-0.365 3.041 0 0.122-0.122 0.243-0.122 0.365-0.243 0.851-0.487 1.824-0.851 2.676-0.122 0.243-0.243 0.608-0.365 0.851-0.122 0.122-0.122 0.365-0.243 0.487l-52.787 107.764c16.177 6.568 27.732 22.38 27.732 40.868v209.203c0 25.421-20.677 46.098-46.098 46.098-2.797 0-5.595-0.243-8.392-0.73-9.73-1.703-18.488-6.69-25.177-13.744-42.327 48.53-161.403 74.316-274.883 74.316-110.683 0-226.961-24.569-271.721-70.91-6.081 5.23-13.501 8.879-21.65 10.339-2.797 0.487-5.595 0.73-8.392 0.73-25.421 0-46.098-20.677-46.098-46.098v-209.081c0-18.488 11.555-34.421 27.732-40.868l-52.787-107.764c-0.122-0.122-0.122-0.365-0.243-0.608s-0.243-0.608-0.365-0.851c-0.365-0.851-0.608-1.703-0.851-2.676 0-0.122-0.122-0.243-0.122-0.365-0.243-0.973-0.243-2.068-0.365-3.041v-139.023c0-9.974 8.149-18.123 18.123-18.123h48.773v-44.516c0-9.974 8.149-18.123 18.123-18.123h77.113c9.974 0 18.123 8.149 18.123 18.123v44.516h402.351v-44.516c0-9.974 8.149-18.123 18.123-18.123h77.235c9.974 0 18.123 8.149 18.123 18.123v44.516h42.205c9.974 0 18.123 8.149 18.123 18.123v138.536c0.122 0.243 0 0.365 0 0.487zM473.747 607.396c0 10.339 8.392 18.731 18.731 18.731h141.577c10.339 0 18.731-8.392 18.731-18.731v-82.343c0-10.339-8.392-18.731-18.731-18.731h-141.577c-10.339 0-18.731 8.392-18.731 18.731zM205.432 607.396c0 10.339 8.392 18.731 18.731 18.731h141.577c10.339 0 18.731-8.392 18.731-18.731v-82.343c0-10.339-8.392-18.731-18.731-18.731h-141.577c-10.339 0-18.731 8.392-18.731 18.731zM98.155 327.647l81.249 165.781c9.974-14.109 26.272-23.231 44.881-23.231h141.577c20.312 0 38.070 11.19 47.557 27.61h31.502c9.487-16.542 27.245-27.61 47.557-27.61h141.577c18.488 0 34.908 9.244 44.881 23.231l81.249-165.781h-662.030z" />
<glyph unicode="&#xe942;" glyph-name="67" data-tags="67" d="M798.864 808.693c-8.149 8.149-19.096 12.649-30.651 12.649h-677.477c-23.839 0-43.3-19.461-43.3-43.3v-677.477c0-23.839 19.461-43.3 43.3-43.3h413.176c23.839 0 43.3 19.461 43.3 43.3s-19.461 43.3-43.3 43.3h-369.754v272.207h139.509v-106.791c0-23.839 19.461-43.3 43.3-43.3s43.3 19.461 43.3 43.3v297.020c0 23.839-19.461 43.3-43.3 43.3s-43.3-19.461-43.3-43.3v-103.507h-139.509v231.826h326.454v-148.388c0-23.839 19.461-43.3 43.3-43.3h149.969c23.839 0 43.3 19.461 43.3 43.3s-19.461 43.3-43.3 43.3h-106.548v105.088h177.579v-382.039h-221.001c-23.839 0-43.3-19.461-43.3-43.3s19.461-43.3 43.3-43.3h221.001v-122.116h-70.91c-23.839 0-43.3-19.461-43.3-43.3s19.461-43.3 43.3-43.3h114.332c23.839 0 43.3 19.461 43.3 43.3v677.477c-0.122 11.555-4.622 22.38-12.771 30.651z" />
<glyph unicode="&#xe943;" glyph-name="68" data-tags="68" d="M707.885 466.913l-0.973 6.446c-7.055 28.218-34.3 47.8-66.288 47.8h-108.494l11.068-48.773h97.547c9.244 0 16.177-4.622 18.366-9.487l0.487-334.482c0-5.96-7.784-12.528-18.853-12.528h-380.701c-15.69 0-28.826 9.487-28.826 20.799v314.534c0 11.312 13.744 21.285 29.434 21.285h78.938l5.473 48.773h-84.411c-43.057 0-78.208-31.38-78.208-70.059v-314.291c0-38.435 34.908-69.694 77.721-69.694h380.701c37.34 0 67.626 27.488 67.626 61.423l-0.608 338.252zM273.302 412.667v-26.759c0-19.096 18.853-34.543 42.084-34.543s42.084-15.447 42.084-34.543v-138.536c0-19.096 18.853-34.543 42.084-34.543h174.295c23.231 0 42.084 15.447 42.084 34.543v22.745c0 19.096-18.853 34.543-42.084 34.543h-14.474c-23.231 0-42.084 15.447-42.084 34.543v46.341c0 19.096 18.853 34.543 42.084 34.543h28.948c23.231 0 42.084 15.447 42.084 34.543v26.759c0 19.096-18.853 34.543-42.084 34.543h-90.128l6.568-133.914c0.608-11.676-3.527-22.623-11.555-31.016s-18.853-13.014-30.529-13.014h-43.787c-11.676 0-22.501 4.622-30.529 13.014s-12.163 19.461-11.555 31.016l6.325 134.279h-67.626c-23.353 0-42.205-15.447-42.205-34.543zM551.834 698.131c0 61.301-49.747 111.048-111.048 111.048s-111.048-49.747-111.048-111.048c0-47.679 30.164-88.303 72.37-103.993l-13.258-281.694c-0.851-17.15 12.893-31.502 30.043-31.502h43.787c17.15 0 30.894 14.352 30.043 31.502l-13.379 281.694c42.205 15.569 72.491 56.193 72.491 103.993zM402.108 702.024c-16.907 0-30.651 13.744-30.651 30.651s13.744 30.651 30.651 30.651 30.651-13.744 30.651-30.651c-0.122-16.907-13.744-30.651-30.651-30.651z" />
<glyph unicode="&#xe944;" glyph-name="70" data-tags="70" d="M800.445 548.892c-0.487 8.028-0.73 15.082-0.73 20.677v7.541c0 34.056-2.433 58.504-7.541 74.802-3.284 10.703-8.028 20.312-13.866 28.583 0.851 0.73 1.703 1.46 2.676 2.311 7.176 6.203 12.406 10.947 15.69 14.109 14.109 10.582 16.298 30.894 4.744 44.273l-12.528 14.474c-10.947 12.649-30.043 13.987-42.692 3.162l-1.095-0.851c-18.609-16.542-31.38-28.583-39.286-37.097-8.271-8.757-16.785-20.312-25.299-34.3-8.879-14.352-15.569-30.043-19.947-46.463-10.46-37.462-14.717-86.114-12.649-144.374 1.095-51.571 6.811-89.763 17.636-116.643l4.622-12.406c20.069-49.625 30.164-93.655 30.164-131.238 0-81.37-24.326-82.83-57.288-82.83-82.222 0-7.055 337.157-66.288 393.958-17.15 19.461-45.368 29.921-83.924 31.259v195.459c0 13.258-4.744 25.421-13.623 35.151-9.244 10.095-21.528 15.325-35.394 15.325h-315.994c-13.258 0-25.421-4.744-36.246-13.987-11.312-9.852-17.271-22.38-17.271-36.489v-691.465h418.041v369.389c0 10.582 13.987 14.231 19.096 4.987v0c3.527-6.325 5.473-13.501 5.473-20.799 0 0 3.406-171.619 5.23-266.612 1.095-58.139 47.8-106.061 105.939-106.426h1.338c47.071 0 84.654 15.933 111.413 47.314 26.15 30.651 39.408 72.978 39.408 126.008 0 47.922-12.041 102.534-35.516 161.889l-4.622 12.163c-5.23 13.379-8.636 34.3-10.095 62.274 10.339 0.487 17.758 0.608 22.258 0.608 25.177 0 42.935 15.447 48.652 42.449l0.122 0.73c1.46 8.392 1.581 14.352 0.608 19.096 0 0.243-0.487 2.919-1.216 13.987zM419.379 564.582h-276.343v176.241c0 15.204 12.285 27.488 27.488 27.488h221.244c15.204 0 27.488-12.285 27.488-27.488v-176.241z" />
<glyph unicode="&#xe945;" glyph-name="71" data-tags="71" d="M633.69 548.284c0 11.068 0.122 29.434 0.122 35.394 0 139.509-94.020 244.719-218.812 244.719s-218.812-105.21-218.812-244.719c0-6.325 0.122-27.61 0.122-38.921 0-6.203-4.865-8.514-7.176-9.487-14.839-5.96-25.299-20.434-25.299-37.34 0-16.785 10.339-31.137 24.934-37.219 2.433-0.973 7.541-2.919 7.541-9.609v-316.845c1.703-43.3 113.359-66.531 218.568-66.531s216.866 23.353 218.568 66.531v0 314.291c0 4.257 2.797 5.108 4.135 5.352 20.555 3.162 36.489 21.042 36.489 42.57 0 19.947-13.623 36.732-31.989 41.597-2.554 0.608-8.392 1.581-8.392 10.217zM552.32 399.531c-3.041 0-6.081 0.365-8.879 1.216-3.284 0.973-4.622-1.095-3.162-5.108 1.946-5.595 4.379-11.555 6.811-17.636 5.717-14.109 11.676-28.705 11.676-40.746 0-39.895-25.907-72.491-57.896-72.491-31.867 0-57.896 32.475-57.896 72.491 0 4.987 1.095 10.582 2.676 16.298 0.608 2.189-0.122 5.595-3.892 4.379-2.554-0.851-5.23-0.973-7.906-0.973-22.015 0-39.895 22.38-39.895 49.868 0 8.271 3.892 18.366 8.028 27.975 2.919 6.933 9.73 7.176 13.136 7.176 72.005 0 144.739 12.771 169.065 37.462 1.216 1.216 3.771 1.338 4.5-2.311 1.824-9.609 3.649-19.582 3.649-27.853-0.122-27.367-18.001-49.747-40.016-49.747h0.001zM415 483.577c-88.303 0-177.579 19.217-177.579 55.95 0 3.284 0.973 8.028 3.892 12.649 18.001 28.461 96.331 43.3 173.809 43.3s155.808-14.839 173.809-43.3c2.189-3.527 3.771-7.541 3.771-12.649-0.122-36.732-89.398-55.95-177.701-55.95zM415 617.977c-68.234 0-139.266-9.365-180.985-28.461-7.419-3.406-7.055 1.46-6.933 3.892 4.135 117.129 83.56 204.338 187.918 204.338 103.872 0 183.053-86.357 187.918-202.757 0.122-2.919-1.338-7.784-6.446-5.595-42.205 18.001-113.116 28.583-181.471 28.583h-0.001z" />
<glyph unicode="&#xe946;" glyph-name="72" data-tags="72" d="M413.054 422.762c63.247 0 112.507 65.558 112.507 133.549v21.285c0 67.869-49.138 116.156-112.507 116.156-63.247 0-112.507-48.165-112.507-116.156v-21.285c0.122-67.991 49.26-133.549 112.507-133.549zM187.796 400.747c18.123 0 67.626 23.475 67.626 72.126v36.124c0 48.652-35.759 72.126-67.626 72.126-30.772 0-67.626-23.475-67.626-72.126v-36.124c0.122-48.652 50.476-72.126 67.626-72.126zM592.701 310.619c0 0.365-0.122 0.73-0.122 1.095-0.487 4.257-1.338 8.392-2.433 12.528v0.122c-2.311 8.636-6.325 17.028-12.285 25.177v0c-9.73 13.501-24.448 27.245-48.409 40.746-12.649 7.055-18.244 10.339-26.029 10.339-12.406 0-23.231-9.73-41.597-26.515v0l-16.663-15.325c-0.608-0.608-18.488-25.907-31.989-25.907-13.379 0-31.38 25.299-31.989 25.907l-16.663 15.325c-18.244 16.785-29.191 26.515-41.597 26.515-7.784 0-14.839-3.284-26.029-10.339-23.231-14.596-38.678-27.245-48.409-40.746v0s0-0.122-0.122-0.122c-5.838-8.149-9.852-16.42-12.163-25.056 0-0.122-0.122-0.122-0.122-0.243-1.095-4.014-1.946-8.149-2.433-12.406 0-0.365-0.122-0.73-0.122-1.095-0.487-4.5-0.73-9.001-0.73-13.744v-99.25c0-32.11 12.041-45.125 45.125-45.125h270.626c33.327 0 45.125 12.285 45.125 45.125v99.25c-0.122 4.622-0.487 9.244-0.973 13.744zM638.799 400.747c18.123 0 67.626 23.475 67.626 72.126v36.124c0 48.652-35.759 72.126-67.626 72.126-30.772 0-67.626-23.475-67.626-72.126v-36.124c0-48.652 50.476-72.126 67.626-72.126zM103.628 351.973c-41.962-23.839-51.328-62.031-51.328-86.722v-45.125c0-32.718 10.947-45.125 45.125-45.125h90.249v135.252l-22.501 22.501c-23.961 21.164-44.030 29.191-61.545 19.217zM773.929 265.251c0 24.812-9.365 62.883-51.328 86.722-17.515 9.974-37.584 1.946-61.423-19.096l-22.623-22.623v-135.252h90.249c34.056 0 45.125 12.406 45.125 45.125v45.124z" />
<glyph unicode="&#xe947;" glyph-name="73" data-tags="73" d="M795.215 557.649c0-126.008-607.297-265.031-653.273-265.031-25.785 0-55.098 5.96-55.098 29.678 0 7.906 9.122 19.461 25.299 33.205v0l-42.692 75.775c-5.717 10.217-1.216 23.231 9.73 27.61l7.298 2.919c13.258 5.352 28.218 4.5 40.868-2.189l77.356-40.989c30.164 17.88 64.342 36.611 100.344 54.977l-150.821 97.79c-11.92 7.784-11.798 25.299 0.243 32.84l12.285 7.784c20.555 12.893 45.489 16.663 68.964 10.582l250.922-66.167c78.208 31.016 148.996 52.301 190.837 52.301 11.19 0 22.38-0.243 33.205-1.095l-75.775-34.178-1.824-25.542 117.008 53.76c27.975-6.568 45.125-19.096 45.125-44.030v0zM489.924 340.175l93.655-106.304c5.717-6.446 14.96-8.392 22.866-4.744l12.528 5.838c22.866 10.582 36.367 34.664 33.448 59.72l-11.676 100.223c-0.73 6.203-7.055 10.095-12.893 8.028l-133.671-47.071c-6.69-2.311-8.757-10.46-4.257-15.69v0z" />
<glyph unicode="&#xe948;" glyph-name="74" data-tags="74" d="M448.449 557.527c31.867 12.285 208.473 170.646 93.776 240.583-104.966 63.856-134.522-164.565-117.737-226.474 0.851-6.933 13.258-15.325 23.961-14.109zM673.828 551.568c-113.237 80.397-207.014-26.759-229.394-26.759h-2.919c-22.38 0-116.156 107.277-229.394 26.759s-28.34-464.747 187.675-464.747h86.357c216.014 0 300.912 384.228 187.675 464.747zM526.048 252.602c-18.853-20.555-38.678-37.948-52.666-49.382-7.176-5.96-12.771-10.217-15.812-12.528l-9.122-6.811-9.122 6.811c-3.041 2.311-8.636 6.568-15.812 12.528-13.866 11.433-33.813 28.826-52.666 49.382-24.448 26.637-41.111 51.814-49.747 75.167-4.744 12.771-7.176 24.934-7.176 36.489 0 11.676 2.554 22.866 7.176 32.84 5.473 11.798 13.623 22.015 23.839 29.799 13.258 10.095 29.799 16.177 47.8 16.177 17.515 0 34.178-5.717 47.8-16.177 2.797-2.068 5.352-4.379 7.906-6.811 2.433 2.433 5.108 4.744 7.906 6.811 13.623 10.46 30.286 16.177 47.8 16.177 18.001 0 34.543-6.081 47.8-16.177 18.853-14.474 31.016-37.097 31.016-62.639 0-32.84-19.096-70.424-56.923-111.656z" />
<glyph unicode="&#xe949;" glyph-name="75" data-tags="75" d="M524.102 793.489c-17.515 0-31.745-14.231-31.745-31.745v-218.812h-254.571v17.271c0 76.019-61.909 137.928-137.928 137.928-17.515 0-31.745-14.231-31.745-31.745s14.231-31.745 31.745-31.745c41.111 0 74.559-33.448 74.559-74.559v-142.915c0-47.314 15.569-90.979 41.719-126.373-14.109-17.88-22.501-40.381-22.501-64.95 0-58.017 47.192-105.331 105.331-105.331 50.841 0 93.412 36.124 103.142 84.168h133.671c9.852-47.922 52.301-84.168 103.142-84.168 58.017 0 105.331 47.192 105.331 105.331 0 12.406-2.189 24.326-6.081 35.394 41.962 38.8 68.234 94.263 68.234 155.808v94.141c0 155.686-126.616 282.302-282.302 282.302h-0.001zM298.966 184.124c-23.11 0-41.962 18.853-41.962 41.962s18.853 41.962 41.962 41.962c23.11 0 41.962-18.853 41.962-41.962s-18.853-41.962-41.962-41.962zM638.921 184.124c-23.11 0-41.962 18.853-41.962 41.962s18.853 41.962 41.962 41.962c23.11 0 41.962-18.853 41.962-41.962s-18.853-41.962-41.962-41.962zM555.847 542.932v184.877c95.358-13.866 170.89-89.519 184.877-184.877h-184.877z" />
<glyph unicode="&#xe94a;" glyph-name="76" data-tags="76" d="M433.61 713.943c-1.338 2.919-4.135 4.865-7.419 4.865-3.162 0-6.081-1.946-7.419-4.865l-55.95-125.887c-2.676-5.96 3.771-11.798 9.487-8.514 15.933 9.001 34.3 14.231 53.882 14.231s37.948-5.23 53.882-14.231c5.717-3.162 12.163 2.554 9.487 8.514zM426.19 383.232c48.287 0 87.452 42.205 87.452 94.141 0 52.057-39.165 94.263-87.452 94.263s-87.452-42.205-87.452-94.263c0-52.057 39.165-94.141 87.452-94.141v0zM655.219 792.273c-1.338 2.919-4.135 4.865-7.419 4.865-3.162 0-6.081-1.946-7.419-4.865l-55.95-125.887c-2.676-5.96 3.771-11.798 9.487-8.514 15.933 9.001 34.3 14.231 53.882 14.231s37.948-5.23 53.882-14.231c5.717-3.162 12.163 2.554 9.487 8.514zM647.8 467.643c48.287 0 87.452 42.205 87.452 94.141 0 52.057-39.165 94.263-87.452 94.263s-87.452-42.205-87.452-94.263c0.122-51.936 39.165-94.141 87.452-94.141v0zM647.8 445.628c-57.166 0-106.304-33.935-128.684-82.83 43.787-29.799 72.735-80.154 72.735-137.077v-70.424h157.875c21.893 0 39.53 17.758 39.53 39.53v109.102c0.122 78.329-63.247 141.699-141.455 141.699v0h-0.001zM211.879 792.273c-1.338 2.919-4.135 4.865-7.419 4.865-3.162 0-6.081-1.946-7.419-4.865l-55.95-125.887c-2.676-5.96 3.771-11.798 9.487-8.514 15.933 9.001 34.3 14.231 53.882 14.231s37.948-5.23 53.882-14.231c5.717-3.162 12.163 2.554 9.487 8.514zM204.459 467.643c48.287 0 87.452 42.205 87.452 94.141 0 52.057-39.165 94.263-87.452 94.263s-87.452-42.205-87.452-94.263c0.122-51.936 39.165-94.141 87.452-94.141v0zM333.144 362.798c-22.38 48.773-71.518 82.83-128.684 82.83-78.208 0-141.577-63.369-141.577-141.577v-109.102c0-21.893 17.758-39.53 39.53-39.53h157.875v70.424c0.122 56.801 29.069 107.034 72.856 136.955v0zM426.19 367.177c-78.208 0-141.577-63.369-141.577-141.577v-109.223c0-21.893 17.758-39.53 39.53-39.53h203.973c21.893 0 39.53 17.758 39.53 39.53v109.223c0 78.208-63.369 141.577-141.455 141.577v0h-0.001z" />
<glyph unicode="&#xe94b;" glyph-name="77" data-tags="77" d="M796.553 588.665l-1.338 1.581-257.612 77.6-412.933-57.409c-0.487-0.122-53.76-8.636-49.26-87.695 1.946-32.718 10.582-52.666 19.704-64.829l-24.448-7.419-1.338-1.581c-5.717-6.325-5.717-12.163-4.622-15.812 2.189-7.906 10.46-13.987 26.15-19.217 0.243-0.243 0.608-0.487 0.851-0.608 11.19-7.055 18.244-40.381 11.92-56.679-2.797-7.055-6.325-7.419-9.852-6.811-7.663 1.46-14.96-0.608-20.92-5.838-23.475-20.677-20.799-87.573-19.947-100.709 4.135-73.343 42.084-83.803 48.409-85.019l230.61-74.924c14.96-4.865 30.529-7.298 46.098-7.298 11.676 0 23.475 1.338 34.908 4.135 0.851 0.122 85.141 18.488 169.065 40.989 174.052 46.706 176.728 65.437 178.066 74.559 0.487 3.649 0 10.703-9.974 16.055-3.162 1.703-5.352 4.865-6.69 9.609-4.014 14.352 1.703 38.435 9.73 53.031 15.325 5.23 23.475 11.312 25.542 19.096 0.973 3.771 0.973 9.487-4.622 15.812l-1.338 1.581-6.325 1.946c11.433 12.041 22.015 33.205 24.204 70.424 1.095 18.244-0.851 34.3-5.838 47.679-3.649 9.73-3.771 21.407-0.487 34.786 2.311 9.487-0.487 15.325-3.284 18.609-4.257 5.108-11.433 7.663-21.528 7.906-2.189 23.839 0.365 51.936 14.96 60.936 0.365 0.243 0.608 0.365 0.851 0.608 15.69 5.23 24.083 11.433 26.15 19.339 0.851 3.527 0.851 9.244-4.865 15.569zM730.386 487.712c0.122-1.46 0.243-2.797 0.487-4.135l-313.075-77.843 2.311 73.464 314.169 64.585c-5.96-18.731-5.595-40.016-3.892-56.071zM707.641 208.207v0c0.122-1.46 0.243-2.797 0.487-4.135l-313.075-77.843 2.311 73.464 314.169 64.585c-5.838-18.731-5.473-40.016-3.892-56.071zM368.173 201.274l-2.433-74.681-251.408 70.302c-1.338 0.487-2.676 0.608-3.771 0.73-0.243 0-18.974 2.676-19.947 49.625-0.487 23.231 4.744 32.11 8.028 35.394 2.189 2.189 4.744 3.284 8.028 3.284 0.73 0 1.216 0 1.581-0.122l259.923-84.533zM388.485 406.099l-252.138 70.667c-0.487 0.122-1.946 0.487-2.676 0.487h-0.122c-0.243 0-18.974 2.311-20.069 49.625-0.487 23.231 4.744 32.11 8.028 35.394 2.189 2.189 4.865 3.284 8.028 3.284 0.73 0 1.338-0.122 1.703-0.122l259.558-84.654-2.311-74.681h-0.001zM734.278 425.559c0 0 6.081 1.095 10.217-3.162 3.162-3.284 8.514-12.285 8.028-35.394-1.095-46.341-19.339-49.503-19.826-49.625h-0.122c-0.851-0.122-2.068-0.243-2.919-0.487l-252.017-70.667-2.433 74.681 259.072 84.654zM131.482 404.031l314.169-64.585 2.311-73.464-313.075 77.843c0.122 1.095 0.243 2.189 0.365 3.406l0.122 0.73c1.703 16.055 1.946 37.34-3.892 56.071z" />
<glyph unicode="&#xe94c;" glyph-name="78" data-tags="78" d="M66.896 493.915l302.128-375.106c3.527-4.379 10.339-0.487 8.514 4.744l-137.077 375.106c-0.73 1.946-2.554 3.284-4.622 3.284h-165.051c-4.135 0-6.446-4.865-3.892-8.028zM270.991 495.253l151.186-413.784c1.581-4.257 7.663-4.379 9.244 0l154.105 413.784c1.216 3.162-1.216 6.69-4.622 6.69h-305.29c-3.406 0-5.838-3.406-4.622-6.69h-0.001zM481.045 108.714l310.277 385.201c2.554 3.162 0.243 8.028-3.892 8.028h-166.754c-2.068 0-3.892-1.338-4.622-3.162l-143.401-385.201c-1.946-5.23 4.865-9.122 8.392-4.865zM662.638 721.119h-194.364c-4.135 0-6.446-4.865-3.771-8.028l133.184-163.957c2.433-2.919 7.055-2.189 8.392 1.338l61.058 163.957c1.216 3.284-1.095 6.69-4.5 6.69h0.001zM571.903 537.337l-138.901 171.011c-1.946 2.433-5.717 2.433-7.663 0l-138.901-171.011c-2.676-3.162-0.365-8.028 3.771-8.028h277.924c4.135 0 6.446 4.865 3.771 8.028h-0.001zM389.945 721.119h-194.486c-3.406 0-5.838-3.406-4.622-6.568l60.328-165.173c1.338-3.649 6.081-4.379 8.392-1.46l134.279 165.173c2.554 3.162 0.243 8.028-3.892 8.028h0.001zM160.308 695.212l-99.007-158.362c-2.068-3.284 0.365-7.541 4.135-7.541h156.781c3.406 0 5.838 3.406 4.622 6.568l-57.774 158.483c-1.338 3.771-6.568 4.379-8.757 0.851v0.001zM796.917 536.85l-99.128 158.483c-2.189 3.406-7.419 2.919-8.757-0.851l-59.112-158.483c-1.216-3.162 1.216-6.69 4.622-6.69h158.24c3.892 0 6.203 4.257 4.135 7.541z" />
</font>
</defs>
</svg>
